G04 start of page 2 for group 1 layer_idx 6 *
G04 Title: (unknown), top_silk *
G04 Creator: pcb-rnd 3.1.5-dev *
G04 CreationDate: 2024-03-24 11:16:41 UTC *
G04 For: STEM4ukraine *
G04 Format: Gerber/RS-274X *
G04 PCB-Dimensions: 393701 374016 *
G04 PCB-Coordinate-Origin: lower left *
%MOIN*%
%FSLAX25Y25*%
%LNTOP_SILK_NONE_1*%
%ADD40C,0.0175*%
%ADD39C,0.0070*%
%ADD38C,0.0079*%
%ADD37C,0.0100*%
%ADD36C,0.0150*%
%ADD35C,0.0001*%
G54D35*G36*
X216945Y359204D02*Y358366D01*
X208941D01*
Y359204D01*
X216945D01*
G37*
G36*
X211370Y357607D02*Y356769D01*
X204959D01*
Y357607D01*
X211370D01*
G37*
G36*
X210574Y356808D02*Y355970D01*
X203366D01*
Y356808D01*
X210574D01*
G37*
G36*
X213759D02*Y355970D01*
X212924D01*
Y356808D01*
X213759D01*
G37*
G36*
X215352D02*Y355970D01*
X214516D01*
Y356808D01*
X215352D01*
G37*
G36*
X220131Y357607D02*Y356769D01*
X212127D01*
Y357607D01*
X220131D01*
G37*
G36*
X212166Y356808D02*Y355970D01*
X211330D01*
Y356808D01*
X212166D01*
G37*
G36*
X218538D02*Y355970D01*
X216109D01*
Y356808D01*
X218538D01*
G37*
G36*
X220131D02*Y355970D01*
X219295D01*
Y356808D01*
X220131D01*
G37*
G36*
X209777Y356009D02*Y355171D01*
X202570D01*
Y356009D01*
X209777D01*
G37*
G36*
X211370D02*Y355171D01*
X210534D01*
Y356009D01*
X211370D01*
G37*
G36*
X214556D02*Y355171D01*
X213720D01*
Y356009D01*
X214556D01*
G37*
G36*
X216149D02*Y355171D01*
X215313D01*
Y356009D01*
X216149D01*
G37*
G36*
X212963D02*Y355171D01*
X212127D01*
Y356009D01*
X212963D01*
G37*
G36*
X220927D02*Y355171D01*
X216906D01*
Y356009D01*
X220927D01*
G37*
G36*
X212166Y355211D02*Y354373D01*
X201773D01*
Y355211D01*
X212166D01*
G37*
G36*
X217742D02*Y354373D01*
X216906D01*
Y355211D01*
X217742D01*
G37*
G36*
X219334D02*Y354373D01*
X218499D01*
Y355211D01*
X219334D01*
G37*
G36*
X221724Y356808D02*Y355970D01*
X220888D01*
Y356808D01*
X221724D01*
G37*
G36*
X213759Y355211D02*Y354373D01*
X212924D01*
Y355211D01*
X213759D01*
G37*
G36*
X207388Y354412D02*Y353574D01*
X200977D01*
Y354412D01*
X207388D01*
G37*
G36*
X210574D02*Y353574D01*
X209738D01*
Y354412D01*
X210574D01*
G37*
G36*
X212166D02*Y353574D01*
X211330D01*
Y354412D01*
X212166D01*
G37*
G36*
X220131D02*Y353574D01*
X219295D01*
Y354412D01*
X220131D01*
G37*
G36*
X222520Y355211D02*Y354373D01*
X220092D01*
Y355211D01*
X222520D01*
G37*
G36*
X208980Y354412D02*Y353574D01*
X208145D01*
Y354412D01*
X208980D01*
G37*
G36*
X222520D02*Y353574D01*
X221684D01*
Y354412D01*
X222520D01*
G37*
G36*
X207388Y353613D02*Y352775D01*
X200180D01*
Y353613D01*
X207388D01*
G37*
G36*
X211370D02*Y352775D01*
X208145D01*
Y353613D01*
X211370D01*
G37*
G36*
X212963D02*Y352775D01*
X212127D01*
Y353613D01*
X212963D01*
G37*
G36*
X224113Y354412D02*Y353574D01*
X223277D01*
Y354412D01*
X224113D01*
G37*
G36*
X206591Y352815D02*Y351976D01*
X200180D01*
Y352815D01*
X206591D01*
G37*
G36*
X208980D02*Y351976D01*
X208145D01*
Y352815D01*
X208980D01*
G37*
G36*
X224113D02*Y351976D01*
X223277D01*
Y352815D01*
X224113D01*
G37*
G36*
X223317Y353613D02*Y352775D01*
X222481D01*
Y353613D01*
X223317D01*
G37*
G36*
X210574Y352815D02*Y351976D01*
X209738D01*
Y352815D01*
X210574D01*
G37*
G36*
X204202Y352016D02*Y351178D01*
X199384D01*
Y352016D01*
X204202D01*
G37*
G36*
X207388D02*Y351178D01*
X206552D01*
Y352016D01*
X207388D01*
G37*
G36*
X212166D02*Y351178D01*
X208941D01*
Y352016D01*
X212166D01*
G37*
G36*
X226503Y352815D02*Y351976D01*
X225667D01*
Y352815D01*
X226503D01*
G37*
G36*
X205795Y352016D02*Y351178D01*
X204959D01*
Y352016D01*
X205795D01*
G37*
G36*
X203405Y351217D02*Y350379D01*
X199384D01*
Y351217D01*
X203405D01*
G37*
G36*
X211370D02*Y350379D01*
X208145D01*
Y351217D01*
X211370D01*
G37*
G36*
X212963D02*Y350379D01*
X212127D01*
Y351217D01*
X212963D01*
G37*
G36*
X225706D02*Y350379D01*
X224074D01*
Y351217D01*
X225706D01*
G37*
G36*
X204998D02*Y350379D01*
X204162D01*
Y351217D01*
X204998D01*
G37*
G36*
X203405Y350418D02*Y349580D01*
X199384D01*
Y350418D01*
X203405D01*
G37*
G36*
X205795D02*Y349580D01*
X204959D01*
Y350418D01*
X205795D01*
G37*
G36*
X224910Y352016D02*Y351178D01*
X224074D01*
Y352016D01*
X224910D01*
G37*
G36*
X211370Y350418D02*Y349580D01*
X208941D01*
Y350418D01*
X211370D01*
G37*
G36*
X202609Y349620D02*Y348781D01*
X199384D01*
Y349620D01*
X202609D01*
G37*
G36*
X207388D02*Y348781D01*
X206552D01*
Y349620D01*
X207388D01*
G37*
G36*
X208980D02*Y348781D01*
X208145D01*
Y349620D01*
X208980D01*
G37*
G36*
X210574D02*Y348781D01*
X209738D01*
Y349620D01*
X210574D01*
G37*
G36*
X226503Y350418D02*Y349580D01*
X225667D01*
Y350418D01*
X226503D01*
G37*
G36*
X204202Y349620D02*Y348781D01*
X203366D01*
Y349620D01*
X204202D01*
G37*
G36*
X202609Y348821D02*Y347983D01*
X198587D01*
Y348821D01*
X202609D01*
G37*
G36*
X210574D02*Y347983D01*
X209738D01*
Y348821D01*
X210574D01*
G37*
G36*
X206591D02*Y347983D01*
X205755D01*
Y348821D01*
X206591D01*
G37*
G36*
X201812Y348022D02*Y347184D01*
X198587D01*
Y348022D01*
X201812D01*
G37*
G36*
X210574D02*Y347184D01*
X209738D01*
Y348022D01*
X210574D01*
G37*
G36*
X226503Y349620D02*Y348781D01*
X225667D01*
Y349620D01*
X226503D01*
G37*
G36*
X201016Y347223D02*Y346385D01*
X198587D01*
Y347223D01*
X201016D01*
G37*
G36*
X202609D02*Y346385D01*
X201773D01*
Y347223D01*
X202609D01*
G37*
G36*
X199423Y346425D02*Y345587D01*
X198587D01*
Y346425D01*
X199423D01*
G37*
G36*
X201812D02*Y345587D01*
X200180D01*
Y346425D01*
X201812D01*
G37*
G36*
X200220Y345626D02*Y344788D01*
X198587D01*
Y345626D01*
X200220D01*
G37*
G36*
X201016Y344827D02*Y343989D01*
X200180D01*
Y344827D01*
X201016D01*
G37*
G36*
X198627Y344029D02*Y343190D01*
X196994D01*
Y344029D01*
X198627D01*
G37*
G36*
X200220D02*Y343190D01*
X199384D01*
Y344029D01*
X200220D01*
G37*
G36*
X227299Y348022D02*Y347184D01*
X226463D01*
Y348022D01*
X227299D01*
G37*
G36*
X197830Y343230D02*Y342392D01*
X196994D01*
Y343230D01*
X197830D01*
G37*
G36*
X201016D02*Y342392D01*
X200180D01*
Y343230D01*
X201016D01*
G37*
G36*
Y332048D02*Y331209D01*
X200180D01*
Y332048D01*
X201016D01*
G37*
G36*
X201812Y331249D02*Y330411D01*
X200180D01*
Y331249D01*
X201812D01*
G37*
G36*
Y330450D02*Y329612D01*
X200180D01*
Y330450D01*
X201812D01*
G37*
G36*
Y329651D02*Y328813D01*
X200977D01*
Y329651D01*
X201812D01*
G37*
G36*
Y328853D02*Y328015D01*
X200180D01*
Y328853D01*
X201812D01*
G37*
G36*
X201016Y328054D02*Y327216D01*
X200180D01*
Y328054D01*
X201016D01*
G37*
G36*
X201812Y327255D02*Y326417D01*
X200180D01*
Y327255D01*
X201812D01*
G37*
G36*
X201016Y326457D02*Y325618D01*
X200180D01*
Y326457D01*
X201016D01*
G37*
G36*
Y325658D02*Y324820D01*
X200180D01*
Y325658D01*
X201016D01*
G37*
G36*
Y324859D02*Y324021D01*
X199384D01*
Y324859D01*
X201016D01*
G37*
G36*
X201812Y324060D02*Y323222D01*
X199384D01*
Y324060D01*
X201812D01*
G37*
G36*
X201016Y323262D02*Y322423D01*
X199384D01*
Y323262D01*
X201016D01*
G37*
G36*
Y322463D02*Y321625D01*
X199384D01*
Y322463D01*
X201016D01*
G37*
G36*
X201812Y321664D02*Y320826D01*
X198587D01*
Y321664D01*
X201812D01*
G37*
G36*
Y320067D02*Y319229D01*
X196198D01*
Y320067D01*
X201812D01*
G37*
G36*
Y320866D02*Y320027D01*
X197791D01*
Y320866D01*
X201812D01*
G37*
G36*
Y319268D02*Y318430D01*
X193012D01*
Y319268D01*
X201812D01*
G37*
G36*
X189069Y318469D02*Y317631D01*
X188233D01*
Y318469D01*
X189069D01*
G37*
G36*
X201812D02*Y317631D01*
X189826D01*
Y318469D01*
X201812D01*
G37*
G36*
Y317671D02*Y316832D01*
X185048D01*
Y317671D01*
X201812D01*
G37*
G36*
Y316872D02*Y316034D01*
X182658D01*
Y316872D01*
X201812D01*
G37*
G36*
X223317Y318469D02*Y317631D01*
X222481D01*
Y318469D01*
X223317D01*
G37*
G36*
X201812Y316073D02*Y315235D01*
X180269D01*
Y316073D01*
X201812D01*
G37*
G36*
X225706Y317671D02*Y316832D01*
X223277D01*
Y317671D01*
X225706D01*
G37*
G36*
X201016Y315274D02*Y314436D01*
X177879D01*
Y315274D01*
X201016D01*
G37*
G36*
X228096Y316872D02*Y316034D01*
X224074D01*
Y316872D01*
X228096D01*
G37*
G36*
X200220Y314476D02*Y313638D01*
X176286D01*
Y314476D01*
X200220D01*
G37*
G36*
X229688Y316073D02*Y315235D01*
X225667D01*
Y316073D01*
X229688D01*
G37*
G36*
X200220Y313677D02*Y312839D01*
X174694D01*
Y313677D01*
X200220D01*
G37*
G36*
X231281Y315274D02*Y314436D01*
X226463D01*
Y315274D01*
X231281D01*
G37*
G36*
X200220Y312878D02*Y312040D01*
X173897D01*
Y312878D01*
X200220D01*
G37*
G36*
X233671Y314476D02*Y313638D01*
X227260D01*
Y314476D01*
X233671D01*
G37*
G36*
X199423Y312079D02*Y311241D01*
X173101D01*
Y312079D01*
X199423D01*
G37*
G36*
X235264Y313677D02*Y312839D01*
X228056D01*
Y313677D01*
X235264D01*
G37*
G36*
X202609Y312079D02*Y311241D01*
X201773D01*
Y312079D01*
X202609D01*
G37*
G36*
X236856Y312878D02*Y312040D01*
X228056D01*
Y312878D01*
X236856D01*
G37*
G36*
X199423Y311281D02*Y310443D01*
X172304D01*
Y311281D01*
X199423D01*
G37*
G36*
X238450Y312079D02*Y311241D01*
X228853D01*
Y312079D01*
X238450D01*
G37*
G36*
X198627Y310482D02*Y309644D01*
X171508D01*
Y310482D01*
X198627D01*
G37*
G36*
X181104Y309683D02*Y308845D01*
X170711D01*
Y309683D01*
X181104D01*
G37*
G36*
X182698D02*Y308845D01*
X181862D01*
Y309683D01*
X182698D01*
G37*
G36*
X193051D02*Y308845D01*
X185048D01*
Y309683D01*
X193051D01*
G37*
G36*
X197830D02*Y308845D01*
X196994D01*
Y309683D01*
X197830D01*
G37*
G36*
X240042Y311281D02*Y310443D01*
X232038D01*
Y311281D01*
X240042D01*
G37*
G36*
X202609Y309683D02*Y308845D01*
X201773D01*
Y309683D01*
X202609D01*
G37*
G36*
X176326Y308885D02*Y308046D01*
X170711D01*
Y308885D01*
X176326D01*
G37*
G36*
X183494D02*Y308046D01*
X182658D01*
Y308885D01*
X183494D01*
G37*
G36*
X191458D02*Y308046D01*
X185844D01*
Y308885D01*
X191458D01*
G37*
G36*
X239246Y309683D02*Y308845D01*
X236817D01*
Y309683D01*
X239246D01*
G37*
G36*
X193051Y308885D02*Y308046D01*
X192216D01*
Y308885D01*
X193051D01*
G37*
G36*
X197830D02*Y308046D01*
X196198D01*
Y308885D01*
X197830D01*
G37*
G36*
X201812D02*Y308046D01*
X198587D01*
Y308885D01*
X201812D01*
G37*
G36*
X240839Y310482D02*Y309644D01*
X234428D01*
Y310482D01*
X240839D01*
G37*
G36*
X181104Y308885D02*Y308046D01*
X180269D01*
Y308885D01*
X181104D01*
G37*
G36*
X175529Y308086D02*Y307248D01*
X169915D01*
Y308086D01*
X175529D01*
G37*
G36*
X177919D02*Y307248D01*
X177083D01*
Y308086D01*
X177919D01*
G37*
G36*
X179512D02*Y307248D01*
X178676D01*
Y308086D01*
X179512D01*
G37*
G36*
X181104D02*Y307248D01*
X180269D01*
Y308086D01*
X181104D01*
G37*
G36*
X190662D02*Y307248D01*
X185844D01*
Y308086D01*
X190662D01*
G37*
G36*
X199423D02*Y307248D01*
X195401D01*
Y308086D01*
X199423D01*
G37*
G36*
X241635Y309683D02*Y308845D01*
X240003D01*
Y309683D01*
X241635D01*
G37*
G36*
X201016Y308086D02*Y307248D01*
X200180D01*
Y308086D01*
X201016D01*
G37*
G36*
X174733Y307287D02*Y306449D01*
X169915D01*
Y307287D01*
X174733D01*
G37*
G36*
X178715D02*Y306449D01*
X177879D01*
Y307287D01*
X178715D01*
G37*
G36*
X180308D02*Y306449D01*
X179472D01*
Y307287D01*
X180308D01*
G37*
G36*
X190662D02*Y306449D01*
X186640D01*
Y307287D01*
X190662D01*
G37*
G36*
X193051D02*Y306449D01*
X192216D01*
Y307287D01*
X193051D01*
G37*
G36*
X197830D02*Y306449D01*
X193808D01*
Y307287D01*
X197830D01*
G37*
G36*
X173936Y306488D02*Y305650D01*
X169118D01*
Y306488D01*
X173936D01*
G37*
G36*
X179512D02*Y305650D01*
X178676D01*
Y306488D01*
X179512D01*
G37*
G36*
X189069D02*Y305650D01*
X186640D01*
Y306488D01*
X189069D01*
G37*
G36*
X199423Y307287D02*Y306449D01*
X198587D01*
Y307287D01*
X199423D01*
G37*
G36*
X191458Y306488D02*Y305650D01*
X189826D01*
Y306488D01*
X191458D01*
G37*
G36*
X193051D02*Y305650D01*
X192216D01*
Y306488D01*
X193051D01*
G37*
G36*
X197830D02*Y305650D01*
X193808D01*
Y306488D01*
X197830D01*
G37*
G36*
X242432Y308885D02*Y308046D01*
X240800D01*
Y308885D01*
X242432D01*
G37*
G36*
X177919Y306488D02*Y305650D01*
X177083D01*
Y306488D01*
X177919D01*
G37*
G36*
X173140Y305690D02*Y304851D01*
X168322D01*
Y305690D01*
X173140D01*
G37*
G36*
X177919D02*Y304851D01*
X176286D01*
Y305690D01*
X177919D01*
G37*
G36*
X189069D02*Y304851D01*
X185844D01*
Y305690D01*
X189069D01*
G37*
G36*
X190662D02*Y304851D01*
X189826D01*
Y305690D01*
X190662D01*
G37*
G36*
X197034D02*Y304851D01*
X191419D01*
Y305690D01*
X197034D01*
G37*
G36*
X173140Y304891D02*Y304053D01*
X168322D01*
Y304891D01*
X173140D01*
G37*
G36*
X177919D02*Y304053D01*
X177083D01*
Y304891D01*
X177919D01*
G37*
G36*
X191458D02*Y304053D01*
X186640D01*
Y304891D01*
X191458D01*
G37*
G36*
X193051D02*Y304053D01*
X192216D01*
Y304891D01*
X193051D01*
G37*
G36*
X195441D02*Y304053D01*
X193808D01*
Y304891D01*
X195441D01*
G37*
G36*
X243228Y308086D02*Y307248D01*
X242392D01*
Y308086D01*
X243228D01*
G37*
G36*
X176326Y304891D02*Y304053D01*
X175490D01*
Y304891D01*
X176326D01*
G37*
G36*
X172344Y304092D02*Y303254D01*
X167525D01*
Y304092D01*
X172344D01*
G37*
G36*
X177122D02*Y303254D01*
X175490D01*
Y304092D01*
X177122D01*
G37*
G36*
X188273D02*Y303254D01*
X186640D01*
Y304092D01*
X188273D01*
G37*
G36*
X189866D02*Y303254D01*
X189030D01*
Y304092D01*
X189866D01*
G37*
G36*
X191458D02*Y303254D01*
X190623D01*
Y304092D01*
X191458D01*
G37*
G36*
X193848D02*Y303254D01*
X192216D01*
Y304092D01*
X193848D01*
G37*
G36*
X171547Y303294D02*Y302455D01*
X167525D01*
Y303294D01*
X171547D01*
G37*
G36*
X177122D02*Y302455D01*
X176286D01*
Y303294D01*
X177122D01*
G37*
G36*
X187476D02*Y302455D01*
X185844D01*
Y303294D01*
X187476D01*
G37*
G36*
X244025Y306488D02*Y305650D01*
X243189D01*
Y306488D01*
X244025D01*
G37*
G36*
X189069Y303294D02*Y302455D01*
X188233D01*
Y303294D01*
X189069D01*
G37*
G36*
X190662D02*Y302455D01*
X189826D01*
Y303294D01*
X190662D01*
G37*
G36*
X192255D02*Y302455D01*
X191419D01*
Y303294D01*
X192255D01*
G37*
G36*
X175529D02*Y302455D01*
X174694D01*
Y303294D01*
X175529D01*
G37*
G36*
X171547Y302495D02*Y301657D01*
X167525D01*
Y302495D01*
X171547D01*
G37*
G36*
X176326D02*Y301657D01*
X175490D01*
Y302495D01*
X176326D01*
G37*
G36*
X187476D02*Y301657D01*
X186640D01*
Y302495D01*
X187476D01*
G37*
G36*
X244821Y304891D02*Y304053D01*
X243985D01*
Y304891D01*
X244821D01*
G37*
G36*
X189069Y302495D02*Y301657D01*
X188233D01*
Y302495D01*
X189069D01*
G37*
G36*
X170751Y301696D02*Y300858D01*
X166729D01*
Y301696D01*
X170751D01*
G37*
G36*
X175529D02*Y300858D01*
X174694D01*
Y301696D01*
X175529D01*
G37*
G36*
X169954Y300897D02*Y300059D01*
X166729D01*
Y300897D01*
X169954D01*
G37*
G36*
Y300099D02*Y299260D01*
X166729D01*
Y300099D01*
X169954D01*
G37*
G36*
Y299300D02*Y298462D01*
X165932D01*
Y299300D01*
X169954D01*
G37*
G36*
X169158Y298501D02*Y297663D01*
X165932D01*
Y298501D01*
X169158D01*
G37*
G36*
X171547D02*Y297663D01*
X170711D01*
Y298501D01*
X171547D01*
G37*
G36*
X169158Y297702D02*Y296864D01*
X165932D01*
Y297702D01*
X169158D01*
G37*
G36*
X168361Y296904D02*Y296065D01*
X165136D01*
Y296904D01*
X168361D01*
G37*
G36*
X212166D02*Y296065D01*
X210534D01*
Y296904D01*
X212166D01*
G37*
G36*
X169158Y296105D02*Y295267D01*
X165136D01*
Y296105D01*
X169158D01*
G37*
G36*
X212963D02*Y295267D01*
X208941D01*
Y296105D01*
X212963D01*
G37*
G36*
X168361Y295306D02*Y294468D01*
X165136D01*
Y295306D01*
X168361D01*
G37*
G36*
X212963D02*Y294468D01*
X209738D01*
Y295306D01*
X212963D01*
G37*
G36*
X167565Y294508D02*Y293669D01*
X165136D01*
Y294508D01*
X167565D01*
G37*
G36*
X169158D02*Y293669D01*
X168322D01*
Y294508D01*
X169158D01*
G37*
G36*
X210574D02*Y293669D01*
X209738D01*
Y294508D01*
X210574D01*
G37*
G36*
X212166D02*Y293669D01*
X211330D01*
Y294508D01*
X212166D01*
G37*
G36*
X213759D02*Y293669D01*
X212924D01*
Y294508D01*
X213759D01*
G37*
G36*
X168361Y293709D02*Y292871D01*
X164340D01*
Y293709D01*
X168361D01*
G37*
G36*
X210574D02*Y292871D01*
X209738D01*
Y293709D01*
X210574D01*
G37*
G36*
X167565Y292910D02*Y292072D01*
X165136D01*
Y292910D01*
X167565D01*
G37*
G36*
X211370D02*Y292072D01*
X210534D01*
Y292910D01*
X211370D01*
G37*
G36*
X212963D02*Y292072D01*
X212127D01*
Y292910D01*
X212963D01*
G37*
G36*
X167565Y292111D02*Y291273D01*
X164340D01*
Y292111D01*
X167565D01*
G37*
G36*
X168361Y291313D02*Y290474D01*
X164340D01*
Y291313D01*
X168361D01*
G37*
G36*
X167565Y290514D02*Y289676D01*
X164340D01*
Y290514D01*
X167565D01*
G37*
G36*
X168361Y289715D02*Y288877D01*
X163543D01*
Y289715D01*
X168361D01*
G37*
G36*
X167565Y288916D02*Y288078D01*
X163543D01*
Y288916D01*
X167565D01*
G37*
G36*
Y288118D02*Y287280D01*
X163543D01*
Y288118D01*
X167565D01*
G37*
G36*
Y287319D02*Y286481D01*
X162747D01*
Y287319D01*
X167565D01*
G37*
G36*
X166768Y286520D02*Y285682D01*
X162747D01*
Y286520D01*
X166768D01*
G37*
G36*
Y285721D02*Y284883D01*
X162747D01*
Y285721D01*
X166768D01*
G37*
G36*
X165972Y284923D02*Y284085D01*
X162747D01*
Y284923D01*
X165972D01*
G37*
G36*
Y284124D02*Y283286D01*
X161950D01*
Y284124D01*
X165972D01*
G37*
G36*
Y283325D02*Y282487D01*
X161950D01*
Y283325D01*
X165972D01*
G37*
G36*
X165175Y282527D02*Y281688D01*
X161950D01*
Y282527D01*
X165175D01*
G37*
G36*
X165972Y281728D02*Y280890D01*
X161950D01*
Y281728D01*
X165972D01*
G37*
G36*
X165175Y280929D02*Y280091D01*
X161154D01*
Y280929D01*
X165175D01*
G37*
G36*
Y280130D02*Y279292D01*
X161154D01*
Y280130D01*
X165175D01*
G37*
G36*
Y279332D02*Y278494D01*
X161154D01*
Y279332D01*
X165175D01*
G37*
G36*
Y278533D02*Y277695D01*
X160357D01*
Y278533D01*
X165175D01*
G37*
G36*
Y277734D02*Y276896D01*
X160357D01*
Y277734D01*
X165175D01*
G37*
G36*
Y276936D02*Y276097D01*
X160357D01*
Y276936D01*
X165175D01*
G37*
G36*
Y276137D02*Y275299D01*
X160357D01*
Y276137D01*
X165175D01*
G37*
G36*
X164379Y275338D02*Y274500D01*
X159561D01*
Y275338D01*
X164379D01*
G37*
G36*
X163582Y274539D02*Y273701D01*
X159561D01*
Y274539D01*
X163582D01*
G37*
G36*
Y273741D02*Y272902D01*
X159561D01*
Y273741D01*
X163582D01*
G37*
G36*
X162786Y272942D02*Y272104D01*
X158764D01*
Y272942D01*
X162786D01*
G37*
G36*
Y272143D02*Y271305D01*
X158764D01*
Y272143D01*
X162786D01*
G37*
G36*
X161990Y271344D02*Y270506D01*
X158764D01*
Y271344D01*
X161990D01*
G37*
G36*
Y270546D02*Y269708D01*
X157968D01*
Y270546D01*
X161990D01*
G37*
G36*
Y269747D02*Y268909D01*
X157968D01*
Y269747D01*
X161990D01*
G37*
G36*
Y268948D02*Y268110D01*
X157968D01*
Y268948D01*
X161990D01*
G37*
G36*
Y268150D02*Y267311D01*
X157968D01*
Y268150D01*
X161990D01*
G37*
G36*
X162786Y267351D02*Y266513D01*
X157171D01*
Y267351D01*
X162786D01*
G37*
G36*
X163582Y266552D02*Y265714D01*
X157171D01*
Y266552D01*
X163582D01*
G37*
G36*
X164379Y265753D02*Y264915D01*
X157171D01*
Y265753D01*
X164379D01*
G37*
G36*
Y264955D02*Y264116D01*
X157171D01*
Y264955D01*
X164379D01*
G37*
G36*
Y264156D02*Y263318D01*
X156375D01*
Y264156D01*
X164379D01*
G37*
G36*
Y263357D02*Y262519D01*
X157171D01*
Y263357D01*
X164379D01*
G37*
G36*
X163582Y262558D02*Y261720D01*
X156375D01*
Y262558D01*
X163582D01*
G37*
G36*
X165175D02*Y261720D01*
X164340D01*
Y262558D01*
X165175D01*
G37*
G36*
X164379Y261760D02*Y260922D01*
X157171D01*
Y261760D01*
X164379D01*
G37*
G36*
X163582Y260961D02*Y260123D01*
X157171D01*
Y260961D01*
X163582D01*
G37*
G36*
X165175D02*Y260123D01*
X164340D01*
Y260961D01*
X165175D01*
G37*
G36*
X164379Y260162D02*Y259324D01*
X156375D01*
Y260162D01*
X164379D01*
G37*
G36*
X165175Y259364D02*Y258525D01*
X157171D01*
Y259364D01*
X165175D01*
G37*
G36*
Y258564D02*Y257727D01*
X157171D01*
Y258564D01*
X165175D01*
G37*
G36*
Y257766D02*Y256928D01*
X157171D01*
Y257766D01*
X165175D01*
G37*
G36*
Y256967D02*Y256130D01*
X157171D01*
Y256967D01*
X165175D01*
G37*
G36*
X166768D02*Y256130D01*
X165932D01*
Y256967D01*
X166768D01*
G37*
G36*
X181104D02*Y256130D01*
X180269D01*
Y256967D01*
X181104D01*
G37*
G36*
X165972Y256169D02*Y255330D01*
X157171D01*
Y256169D01*
X165972D01*
G37*
G36*
X165175Y255370D02*Y254532D01*
X157171D01*
Y255370D01*
X165175D01*
G37*
G36*
X166768D02*Y254532D01*
X165932D01*
Y255370D01*
X166768D01*
G37*
G36*
X165972Y254571D02*Y253733D01*
X157968D01*
Y254571D01*
X165972D01*
G37*
G36*
X167565Y253773D02*Y252934D01*
X157968D01*
Y253773D01*
X167565D01*
G37*
G36*
X181901D02*Y252934D01*
X181065D01*
Y253773D01*
X181901D01*
G37*
G36*
X168361Y252974D02*Y252135D01*
X158764D01*
Y252974D01*
X168361D01*
G37*
G36*
X181901D02*Y252135D01*
X181065D01*
Y252974D01*
X181901D01*
G37*
G36*
X169158Y252175D02*Y251337D01*
X158764D01*
Y252175D01*
X169158D01*
G37*
G36*
X181901D02*Y251337D01*
X181065D01*
Y252175D01*
X181901D01*
G37*
G36*
X170751Y251376D02*Y250538D01*
X159561D01*
Y251376D01*
X170751D01*
G37*
G36*
X245618Y304092D02*Y303254D01*
X244782D01*
Y304092D01*
X245618D01*
G37*
G36*
X170751Y250578D02*Y249739D01*
X159561D01*
Y250578D01*
X170751D01*
G37*
G36*
X181901Y251376D02*Y250538D01*
X181065D01*
Y251376D01*
X181901D01*
G37*
G36*
X169954Y249778D02*Y248941D01*
X160357D01*
Y249778D01*
X169954D01*
G37*
G36*
X181901Y250578D02*Y249739D01*
X181065D01*
Y250578D01*
X181901D01*
G37*
G36*
X169954Y248980D02*Y248142D01*
X160357D01*
Y248980D01*
X169954D01*
G37*
G36*
X245618Y302495D02*Y301657D01*
X244782D01*
Y302495D01*
X245618D01*
G37*
G36*
X182698Y249778D02*Y248941D01*
X181065D01*
Y249778D01*
X182698D01*
G37*
G36*
Y248980D02*Y248142D01*
X181065D01*
Y248980D01*
X182698D01*
G37*
G36*
X169954Y248181D02*Y247344D01*
X161154D01*
Y248181D01*
X169954D01*
G37*
G36*
X181901D02*Y247344D01*
X181065D01*
Y248181D01*
X181901D01*
G37*
G36*
X171547Y247383D02*Y246544D01*
X161950D01*
Y247383D01*
X171547D01*
G37*
G36*
X173140D02*Y246544D01*
X172304D01*
Y247383D01*
X173140D01*
G37*
G36*
X183494D02*Y246544D01*
X181065D01*
Y247383D01*
X183494D01*
G37*
G36*
X177953Y272441D02*X178740Y270079D01*
X179921Y266929D01*
Y259843D01*
X180315Y255118D01*
X180709Y252756D01*
X180866Y252244D01*
Y248110D01*
X179134Y246063D01*
X177165Y244488D01*
X175984Y245276D01*
X175197Y246457D01*
X174016Y248031D01*
X172835Y251575D01*
X172441Y255512D01*
Y259055D01*
X171654Y261417D01*
X172047Y264961D01*
X173622Y266929D01*
X175197Y269291D01*
X176378Y272441D01*
X176772Y275197D01*
X177953Y272441D01*
G37*
G36*
X182698Y246584D02*Y245746D01*
X181065D01*
Y246584D01*
X182698D01*
G37*
G36*
X173936Y245785D02*Y244947D01*
X172304D01*
Y245785D01*
X173936D01*
G37*
G36*
X205795Y247383D02*Y246544D01*
X204959D01*
Y247383D01*
X205795D01*
G37*
G36*
X204998Y246584D02*Y245746D01*
X203366D01*
Y246584D01*
X204998D01*
G37*
G36*
X182698Y245785D02*Y244947D01*
X181862D01*
Y245785D01*
X182698D01*
G37*
G36*
X204998D02*Y244947D01*
X201773D01*
Y245785D01*
X204998D01*
G37*
G36*
X207388Y247383D02*Y246544D01*
X206552D01*
Y247383D01*
X207388D01*
G37*
G36*
X172344Y246584D02*Y245746D01*
X161950D01*
Y246584D01*
X172344D01*
G37*
G36*
X171547Y245785D02*Y244947D01*
X162747D01*
Y245785D01*
X171547D01*
G37*
G36*
X170751Y244987D02*Y244148D01*
X163543D01*
Y244987D01*
X170751D01*
G37*
G36*
X182698D02*Y244148D01*
X181862D01*
Y244987D01*
X182698D01*
G37*
G36*
X184290D02*Y244148D01*
X183454D01*
Y244987D01*
X184290D01*
G37*
G36*
X203405D02*Y244148D01*
X200180D01*
Y244987D01*
X203405D01*
G37*
G36*
X169954Y244188D02*Y243349D01*
X164340D01*
Y244188D01*
X169954D01*
G37*
G36*
X203405D02*Y243349D01*
X199384D01*
Y244188D01*
X203405D01*
G37*
G36*
X208980Y247383D02*Y246544D01*
X208145D01*
Y247383D01*
X208980D01*
G37*
G36*
X182698Y244188D02*Y243349D01*
X181862D01*
Y244188D01*
X182698D01*
G37*
G36*
X168361Y243389D02*Y242551D01*
X163543D01*
Y243389D01*
X168361D01*
G37*
G36*
X169954D02*Y242551D01*
X169118D01*
Y243389D01*
X169954D01*
G37*
G36*
X183494D02*Y242551D01*
X181862D01*
Y243389D01*
X183494D01*
G37*
G36*
X185087D02*Y242551D01*
X184251D01*
Y243389D01*
X185087D01*
G37*
G36*
X210574Y248181D02*Y247344D01*
X205755D01*
Y248181D01*
X210574D01*
G37*
G36*
X169954Y242590D02*Y241752D01*
X164340D01*
Y242590D01*
X169954D01*
G37*
G36*
X197830D02*Y241752D01*
X194605D01*
Y242590D01*
X197830D01*
G37*
G36*
X199423D02*Y241752D01*
X198587D01*
Y242590D01*
X199423D01*
G37*
G36*
X182698D02*Y241752D01*
X181862D01*
Y242590D01*
X182698D01*
G37*
G36*
X167565Y241792D02*Y240953D01*
X165136D01*
Y241792D01*
X167565D01*
G37*
G36*
X169158D02*Y240953D01*
X168322D01*
Y241792D01*
X169158D01*
G37*
G36*
X185883D02*Y240953D01*
X185048D01*
Y241792D01*
X185883D01*
G37*
G36*
X188273D02*Y240953D01*
X187437D01*
Y241792D01*
X188273D01*
G37*
G36*
X189866D02*Y240953D01*
X189030D01*
Y241792D01*
X189866D01*
G37*
G36*
X196237D02*Y240953D01*
X190623D01*
Y241792D01*
X196237D01*
G37*
G36*
X168361Y240993D02*Y240155D01*
X165136D01*
Y240993D01*
X168361D01*
G37*
G36*
X190662D02*Y240155D01*
X188233D01*
Y240993D01*
X190662D01*
G37*
G36*
X193848D02*Y240155D01*
X193012D01*
Y240993D01*
X193848D01*
G37*
G36*
X195441D02*Y240155D01*
X194605D01*
Y240993D01*
X195441D01*
G37*
G36*
X187476D02*Y240155D01*
X184251D01*
Y240993D01*
X187476D01*
G37*
G36*
X166768Y240194D02*Y239356D01*
X165136D01*
Y240194D01*
X166768D01*
G37*
G36*
X185883D02*Y239356D01*
X184251D01*
Y240194D01*
X185883D01*
G37*
G36*
X173936D02*Y239356D01*
X172304D01*
Y240194D01*
X173936D01*
G37*
G36*
X189069D02*Y239356D01*
X188233D01*
Y240194D01*
X189069D01*
G37*
G36*
X175529Y239395D02*Y238558D01*
X169915D01*
Y239395D01*
X175529D01*
G37*
G36*
X177919D02*Y238558D01*
X177083D01*
Y239395D01*
X177919D01*
G37*
G36*
X185087D02*Y238558D01*
X182658D01*
Y239395D01*
X185087D01*
G37*
G36*
X189069D02*Y238558D01*
X187437D01*
Y239395D01*
X189069D01*
G37*
G36*
X174733Y238597D02*Y237758D01*
X168322D01*
Y238597D01*
X174733D01*
G37*
G36*
X176326D02*Y237758D01*
X175490D01*
Y238597D01*
X176326D01*
G37*
G36*
X183494D02*Y237758D01*
X182658D01*
Y238597D01*
X183494D01*
G37*
G36*
X175529Y237798D02*Y236960D01*
X166729D01*
Y237798D01*
X175529D01*
G37*
G36*
Y236999D02*Y236161D01*
X165932D01*
Y236999D01*
X175529D01*
G37*
G36*
Y236201D02*Y235363D01*
X165136D01*
Y236201D01*
X175529D01*
G37*
G36*
X174733Y235402D02*Y234563D01*
X165136D01*
Y235402D01*
X174733D01*
G37*
G36*
X171547Y234603D02*Y233765D01*
X165136D01*
Y234603D01*
X171547D01*
G37*
G36*
X173936D02*Y233765D01*
X173101D01*
Y234603D01*
X173936D01*
G37*
G36*
X169158Y233804D02*Y232966D01*
X164340D01*
Y233804D01*
X169158D01*
G37*
G36*
X167565Y233006D02*Y232167D01*
X164340D01*
Y233006D01*
X167565D01*
G37*
G36*
X165972Y232207D02*Y231368D01*
X164340D01*
Y232207D01*
X165972D01*
G37*
G36*
X167565D02*Y231368D01*
X166729D01*
Y232207D01*
X167565D01*
G37*
G36*
X164379Y231408D02*Y230570D01*
X163543D01*
Y231408D01*
X164379D01*
G37*
G36*
X168361D02*Y230570D01*
X166729D01*
Y231408D01*
X168361D01*
G37*
G36*
X165175Y230609D02*Y229772D01*
X164340D01*
Y230609D01*
X165175D01*
G37*
G36*
X212166Y248980D02*Y248142D01*
X209738D01*
Y248980D01*
X212166D01*
G37*
G36*
X202609Y243389D02*Y242551D01*
X197791D01*
Y243389D01*
X202609D01*
G37*
G36*
X204998Y244188D02*Y243349D01*
X204162D01*
Y244188D01*
X204998D01*
G37*
G36*
X168361Y230609D02*Y229772D01*
X165932D01*
Y230609D01*
X168361D01*
G37*
G36*
X137795Y370079D02*X275591D01*
Y225984D01*
X246457D01*
X244488Y230709D01*
X242126Y235433D01*
X239764Y240945D01*
X239370Y246457D01*
X240157Y251969D01*
X242520Y255512D01*
X243701Y259843D01*
X244094Y262205D01*
X245669Y265354D01*
X247244Y270079D01*
X248819Y276378D01*
X249213Y278346D01*
X250000Y280709D01*
X250394Y286614D01*
X250000Y291339D01*
X248819Y296850D01*
X247638Y300000D01*
X247244Y303150D01*
X244882Y306299D01*
X244094Y308268D01*
X242520Y310236D01*
X240157Y312205D01*
X233071Y315748D01*
X229921Y316929D01*
X227559Y318110D01*
X224803Y318898D01*
X223228Y320472D01*
Y322047D01*
X224016Y323228D01*
X224803Y325591D01*
X225197Y325984D01*
X225591Y327953D01*
X226772Y329528D01*
X227559Y331496D01*
X228346Y333071D01*
X229528Y336614D01*
Y345669D01*
X229134Y349213D01*
X227953Y351969D01*
X226772Y353937D01*
X224409Y356299D01*
X218504Y359843D01*
X215354Y360236D01*
X209449D01*
X206693Y359449D01*
X201969Y356693D01*
X200787Y355512D01*
X199213Y352756D01*
X198819Y351181D01*
X197638Y346850D01*
X196457Y343701D01*
X195669Y340945D01*
Y339764D01*
X196457Y337402D01*
X197638Y334252D01*
X199606Y332283D01*
X200000Y331496D01*
Y325984D01*
X199213Y324803D01*
X198031Y322047D01*
X196850Y320866D01*
X194094Y320079D01*
X191732Y319685D01*
X183465Y318110D01*
X179921Y316535D01*
X176772Y315748D01*
X174016Y313780D01*
X172047Y311811D01*
X170472Y309449D01*
X169291Y307480D01*
X168110Y306693D01*
X167323Y304331D01*
X165354Y297638D01*
X164567Y295669D01*
X163780Y291339D01*
X163386Y290157D01*
X162598Y287402D01*
X161811Y283465D01*
X161024Y280315D01*
X160630Y279528D01*
X159055Y274803D01*
X158268Y271654D01*
X157874Y270472D01*
X157087Y266929D01*
X156693Y265748D01*
X156299Y258268D01*
X156693Y253937D01*
X157874Y251181D01*
X159449Y249213D01*
X160630Y245669D01*
X161417Y243701D01*
X162598Y242126D01*
X162992Y238583D01*
X163386Y236220D01*
X162992Y234646D01*
Y229921D01*
X163386Y228740D01*
X137795D01*
Y370079D01*
G37*
G36*
X165175Y229811D02*Y228972D01*
X164340D01*
Y229811D01*
X165175D01*
G37*
G36*
X168361D02*Y228972D01*
X165932D01*
Y229811D01*
X168361D01*
G37*
G36*
X183494D02*Y228972D01*
X182658D01*
Y229811D01*
X183494D01*
G37*
G36*
X168361Y229011D02*Y228174D01*
X166729D01*
Y229011D01*
X168361D01*
G37*
G36*
X163386Y228740D02*X166929Y228346D01*
X173622Y226772D01*
X181496Y225197D01*
X192126Y223228D01*
X198425Y220866D01*
X200000Y219685D01*
X202362Y217323D01*
X205118Y213386D01*
X208661Y209055D01*
X211811Y205906D01*
X214173Y201181D01*
X217323Y194094D01*
X220079Y185827D01*
X221654Y179921D01*
X223228Y172835D01*
X228740Y150787D01*
X229921Y146850D01*
X231102Y141732D01*
X232283Y137008D01*
X234646Y130709D01*
X236614Y125197D01*
X238189Y119291D01*
X238583Y116929D01*
X238976Y113386D01*
Y109055D01*
X238583Y106693D01*
X237402Y105512D01*
X235039Y104724D01*
X232283Y104331D01*
X230315Y103543D01*
X228346Y101575D01*
X227559Y100000D01*
X226772Y97244D01*
X226378Y95669D01*
X224803Y94094D01*
X224016Y93701D01*
X223622Y92520D01*
X222835Y91339D01*
X223228Y88583D01*
X224016Y87008D01*
X225716Y85810D01*
X227559Y85827D01*
X229134Y86220D01*
X233071D01*
X236614Y85827D01*
X238583Y83858D01*
X240551Y83071D01*
X242520Y82677D01*
X245669D01*
X249606Y83465D01*
X251969Y84134D01*
X252087Y84567D01*
X252165Y84921D01*
X252244Y85315D01*
X252323Y85748D01*
X252362Y86024D01*
X252402Y86339D01*
X252441Y86693D01*
X252480Y87283D01*
Y88740D01*
X252400Y89716D01*
X252600Y91916D01*
X252362Y92913D01*
Y94488D01*
X252756Y95669D01*
X253600Y96916D01*
X254331Y98819D01*
Y101575D01*
X253937Y102756D01*
X252362Y107087D01*
X250787Y109449D01*
X250394Y112992D01*
X250787Y115354D01*
X251181Y116142D01*
X251575Y123228D01*
X251181Y138189D01*
Y153150D01*
X250000Y158268D01*
X247244Y170079D01*
X245669Y175591D01*
Y179134D01*
X246063Y181496D01*
Y190945D01*
X246457Y196063D01*
X246850Y200394D01*
X247638Y201969D01*
Y206693D01*
X247244Y208268D01*
X246063Y214173D01*
Y214961D01*
X246457Y217717D01*
X246850Y220079D01*
Y224016D01*
X246457Y225984D01*
X244488Y230709D01*
X287402Y232283D01*
Y62992D01*
X141732D01*
Y230315D01*
X162402D01*
X162992Y229921D01*
X163386Y228740D01*
G37*
G36*
X392717Y373031D02*Y55118D01*
X204724D01*
Y80709D01*
X253937D01*
Y360236D01*
X204724D01*
Y373031D01*
X392717D01*
G37*
G36*
X204724D02*Y360236D01*
X155512D01*
Y80709D01*
X204724D01*
Y55118D01*
X984D01*
Y373031D01*
X204724D01*
G37*
G36*
X392717D02*Y55118D01*
X204724D01*
Y80709D01*
X253937D01*
Y360236D01*
X204724D01*
Y373031D01*
X392717D01*
G37*
G36*
X204724D02*Y360236D01*
X155512D01*
Y80709D01*
X204724D01*
Y55118D01*
X984D01*
Y373031D01*
X204724D01*
G37*
G36*
X218538Y358406D02*Y357567D01*
X206552D01*
Y358406D01*
X218538D01*
G37*
G54D36*X288000Y19016D02*X280000D01*
X288000Y24016D02*Y14016D01*
G54D37*X270000Y34016D02*X277500D01*
Y36516D02*Y31516D01*
G54D36*X300000Y19016D02*X292000D01*
Y24016D02*Y14016D01*
G54D37*X292500Y34016D02*X300000D01*
X212657Y46516D02*X172657D01*
Y6516D02*Y46516D01*
Y6516D02*X212657D01*
Y46516D02*Y31516D01*
Y21516D02*Y6516D01*
X230000Y41516D02*X250000D01*
X230000Y36516D02*X225000Y39016D01*
X230000Y36516D02*X225000Y34016D01*
Y39016D02*Y34016D01*
X277500Y36516D02*X292500D01*
X230000Y41516D02*Y11516D01*
X250000D02*X230000D01*
X250000D02*Y41516D01*
X292500Y31516D02*X277500D01*
X292500D02*Y36516D01*
X70000Y34016D02*X62500D01*
X70000Y36516D02*Y31516D01*
G54D38*X37181Y14780D02*Y38402D01*
X13559D02*Y14780D01*
Y38402D02*X37181D01*
G54D37*X70000Y36516D02*X85000D01*
X62500Y19016D02*X70000D01*
Y21516D02*X85000D01*
X92500Y34016D02*X85000D01*
Y31516D02*Y36516D01*
Y31516D02*X70000D01*
X85000Y19016D02*X92500D01*
X70000Y21516D02*Y16516D01*
X85000D02*X70000D01*
G54D38*X13559Y14780D02*X37181D01*
G54D37*X85000Y16516D02*Y21516D01*
G54D38*X30059Y34547D02*G75*G03X32815Y31791I2756J0D01*G01*
Y37303D02*G75*G03X30059Y34547I0J-2756D01*G01*
X35571D02*G75*G03X32815Y37303I-2756J0D01*G01*
X31634Y26673D02*G75*G03X24941Y33366I-6693J0D01*G01*
Y19980D02*G75*G03X31634Y26673I0J6693D01*G01*
X30059Y18799D02*G75*G03X32815Y16043I2756J0D01*G01*
Y21555D02*G75*G03X30059Y18799I0J-2756D01*G01*
X35571D02*G75*G03X32815Y21555I-2756J0D01*G01*
Y16043D02*G75*G03X35571Y18799I0J2756D01*G01*
X17067Y21555D02*G75*G03X14311Y18799I0J-2756D01*G01*
Y34547D02*G75*G03X17067Y31791I2756J0D01*G01*
Y37303D02*G75*G03X14311Y34547I0J-2756D01*G01*
X19823Y18799D02*G75*G03X17067Y21555I-2756J0D01*G01*
X19823Y34547D02*G75*G03X17067Y37303I-2756J0D01*G01*
Y31791D02*G75*G03X19823Y34547I0J2756D01*G01*
X24941Y33366D02*G75*G03X18248Y26673I0J-6693D01*G01*
G75*G03X24941Y19980I6693J0D01*G01*
X17067Y16043D02*G75*G03X19823Y18799I0J2756D01*G01*
X14311D02*G75*G03X17067Y16043I2756J0D01*G01*
G54D37*X159961Y26516D02*G75*G03X110354Y26516I-24803J0D01*G01*
G75*G03X159961Y26516I24803J0D01*G01*
X212657Y31516D02*G75*G03X212657Y21516I0J-5000D01*G01*
G54D38*X32815Y31791D02*G75*G03X35571Y34547I0J2756D01*G01*
G54D39*X152720Y7106D02*Y3106D01*
X152220Y7106D02*X154220D01*
X154720Y6606D01*
Y5606D01*
X154220Y5106D02*X154720Y5606D01*
X152720Y5106D02*X154220D01*
X155920Y7106D02*X156920D01*
X156420D02*Y3106D01*
X155920D02*X156920D01*
X158120Y5306D02*X159620D01*
X158120Y3106D02*X160120D01*
X158120Y7106D02*Y3106D01*
Y7106D02*X160120D01*
X161320D02*X163820D01*
X161320Y3106D02*X163820Y7106D01*
X161320Y3106D02*X163820D01*
X165020Y6606D02*Y3606D01*
Y6606D02*X165520Y7106D01*
X166520D01*
X167020Y6606D01*
Y3606D01*
X166520Y3106D02*X167020Y3606D01*
X165520Y3106D02*X166520D01*
X165020Y3606D02*X165520Y3106D01*
X99500Y36016D02*X101500D01*
X102000Y35516D01*
Y34516D01*
X101500Y34016D02*X102000Y34516D01*
X100000Y34016D02*X101500D01*
X100000Y36016D02*Y32016D01*
X100800Y34016D02*X102000Y32016D01*
X103200Y35516D02*X103700Y36016D01*
X105200D01*
X105700Y35516D01*
Y34516D01*
X103200Y32016D02*X105700Y34516D01*
X103200Y32016D02*X105700D01*
X99500Y21016D02*X101500D01*
X102000Y20516D01*
Y19516D01*
X101500Y19016D02*X102000Y19516D01*
X100000Y19016D02*X101500D01*
X100000Y21016D02*Y17016D01*
X100800Y19016D02*X102000Y17016D01*
X103200Y20516D02*X103700Y21016D01*
X104700D01*
X105200Y20516D01*
X104700Y17016D02*X105200Y17516D01*
X103700Y17016D02*X104700D01*
X103200Y17516D02*X103700Y17016D01*
Y19216D02*X104700D01*
X105200Y20516D02*Y19716D01*
Y18716D02*Y17516D01*
Y18716D02*X104700Y19216D01*
X105200Y19716D02*X104700Y19216D01*
X307700Y17016D02*X309000D01*
X307000Y17716D02*X307700Y17016D01*
X307000Y20316D02*Y17716D01*
Y20316D02*X307700Y21016D01*
X309000D01*
X310200Y20216D02*X311000Y21016D01*
Y17016D01*
X310200D02*X311700D01*
X306500Y35016D02*X308500D01*
X309000Y34516D01*
Y33516D01*
X308500Y33016D02*X309000Y33516D01*
X307000Y33016D02*X308500D01*
X307000Y35016D02*Y31016D01*
X307800Y33016D02*X309000Y31016D01*
X310200Y34216D02*X311000Y35016D01*
Y31016D01*
X310200D02*X311700D01*
X214500Y45673D02*Y42173D01*
X215000Y41673D01*
X216000D01*
X216500Y42173D01*
Y45673D02*Y42173D01*
X217700Y44873D02*X218500Y45673D01*
Y41673D01*
X217700D02*X219200D01*
X236000Y46516D02*X237000D01*
X236500D02*Y42516D01*
X236000D02*X237000D01*
X240200Y46516D02*X240700Y46016D01*
X238700Y46516D02*X240200D01*
X238200Y46016D02*X238700Y46516D01*
X238200Y46016D02*Y45016D01*
X238700Y44516D01*
X240200D01*
X240700Y44016D01*
Y43016D01*
X240200Y42516D02*X240700Y43016D01*
X238700Y42516D02*X240200D01*
X238200Y43016D02*X238700Y42516D01*
X242400Y46516D02*Y42516D01*
X241900Y46516D02*X243900D01*
X244400Y46016D01*
Y45016D01*
X243900Y44516D02*X244400Y45016D01*
X242400Y44516D02*X243900D01*
X155200Y360397D02*X157200D01*
X157700Y360897D01*
Y362097D02*Y360897D01*
X157200Y362597D02*X157700Y362097D01*
X155700Y362597D02*X157200D01*
X155700Y364397D02*Y360397D01*
X155200Y364397D02*X157200D01*
X157700Y363897D01*
Y363097D01*
X157200Y362597D02*X157700Y363097D01*
X158900Y364397D02*Y360397D01*
Y364397D02*X160400Y362397D01*
X161900Y364397D01*
Y360397D01*
X163600Y364397D02*Y360397D01*
X163100Y364397D02*X165100D01*
X165600Y363897D01*
Y362897D01*
X165100Y362397D02*X165600Y362897D01*
X163600Y362397D02*X165100D01*
X166800Y363597D02*X167600Y364397D01*
Y360397D01*
X166800D02*X168300D01*
X22079Y13705D02*X22579Y13205D01*
X20579Y13705D02*X22079D01*
X20079Y13205D02*X20579Y13705D01*
X20079Y13205D02*Y12205D01*
X20579Y11705D01*
X22079D01*
X22579Y11205D01*
Y10205D01*
X22079Y9705D02*X22579Y10205D01*
X20579Y9705D02*X22079D01*
X20079Y10205D02*X20579Y9705D01*
X23779Y13705D02*Y11705D01*
X24279Y9705D01*
X25279Y11705D01*
X26279Y9705D01*
X26779Y11705D01*
Y13705D01*
X27979Y12905D02*X28779Y13705D01*
Y9705D01*
X27979D02*X29479D01*
%LPC*%
G54D35*G36*
X83858Y262008D02*Y262992D01*
X84252Y265157D01*
X85039Y266929D01*
X86220Y268504D01*
X87008Y268898D01*
X87992D01*
X88780Y268307D01*
X88976Y266535D01*
X88780Y264370D01*
X87992Y262205D01*
X86417Y261024D01*
X84449Y260827D01*
X83858Y262008D01*
G37*
G36*
X138386Y336024D02*X140748Y331890D01*
X142126Y328740D01*
X143307Y325591D01*
X143898Y323031D01*
Y318701D01*
X143701Y316142D01*
X143110Y315157D01*
X142520Y314567D01*
X141339Y314764D01*
X139370Y316732D01*
X137598Y318898D01*
X136220Y320669D01*
Y339567D01*
X138386Y336024D01*
G37*
G36*
X152756Y231890D02*X151378Y234252D01*
X150000Y237598D01*
X148819Y241732D01*
X148425Y245276D01*
X148622Y250394D01*
X149409Y258071D01*
X151575Y266929D01*
X155512Y276772D01*
X156890Y281102D01*
X157677Y285827D01*
Y289370D01*
X147638Y307283D01*
X148819Y310827D01*
X149803Y314961D01*
X150197Y317717D01*
X150394Y320472D01*
Y323228D01*
X150197Y325984D01*
X149803Y328150D01*
X148622Y331693D01*
X147835Y333268D01*
X146457Y335630D01*
X144685Y337992D01*
X143110Y339764D01*
X140945Y341535D01*
X139370Y342717D01*
X137205Y343898D01*
X135433Y344685D01*
X134252Y345079D01*
X133268D01*
X132677Y344291D01*
X132480Y343701D01*
Y319882D01*
X128543Y317913D01*
X125984Y315748D01*
X123622Y312795D01*
X120472Y310236D01*
X117126Y307283D01*
X113189Y304528D01*
X108071Y301378D01*
X102165Y298622D01*
X96457Y296457D01*
X90945Y294488D01*
X87402Y292913D01*
X84646Y291142D01*
X81102Y289764D01*
X76575Y289370D01*
X70669D01*
X63583Y290157D01*
X59646Y291732D01*
X56496Y294094D01*
X54724Y296063D01*
X53937Y298228D01*
X53740Y300197D01*
X56102Y299213D01*
X59252Y297047D01*
X63583Y295079D01*
X66535Y294685D01*
X70079Y294882D01*
X71457Y295472D01*
X71654Y296457D01*
X71457Y297244D01*
X70276Y297835D01*
X68898D01*
X67717Y297638D01*
X66339D01*
X65157Y298425D01*
X60433Y303543D01*
X58465Y306890D01*
X57283Y309646D01*
X56299Y313189D01*
X56102Y316732D01*
X56693Y319488D01*
X57480Y319685D01*
X59449Y318307D01*
X62205Y316929D01*
X63780Y316339D01*
X64764Y314173D01*
X66929Y310827D01*
X70276Y308268D01*
X71850Y307283D01*
X74606Y306102D01*
X75591Y304331D01*
X79528D01*
X85039Y304724D01*
X88583Y306496D01*
X89764Y309843D01*
X87795Y314173D01*
X80906Y318701D01*
X77756Y319291D01*
X73622Y323031D01*
X68504Y325591D01*
X65945Y326969D01*
X61811Y331496D01*
X62598Y333071D01*
X64961Y335236D01*
X68307Y336024D01*
X72638Y335630D01*
X74409Y334055D01*
X75197Y331102D01*
X74803Y329331D01*
X73622Y328150D01*
X72047Y327362D01*
X69882Y327756D01*
X69094Y328543D01*
Y329724D01*
X70669D01*
X72244Y330709D01*
X71457Y332480D01*
X69094D01*
X67913Y331299D01*
X67126Y329134D01*
X67520Y327559D01*
X71850Y324803D01*
X77362Y322244D01*
X77953Y324409D01*
X77362Y326772D01*
X76575Y330709D01*
Y334843D01*
X77559Y338780D01*
X79724Y339173D01*
X81102Y336811D01*
X83465Y334646D01*
X86220Y334252D01*
X87795D01*
X83268Y336811D01*
X81496Y340157D01*
X79921Y344882D01*
X79724Y347835D01*
X80315Y349803D01*
X81890Y349016D01*
X82677Y346063D01*
X84646Y342717D01*
X87795Y339764D01*
X91142Y338386D01*
X93504D01*
X88780Y341929D01*
X85827Y346063D01*
X84843Y350000D01*
X84449Y353346D01*
X85433Y356496D01*
X87402Y356693D01*
X88189Y353543D01*
X89370Y350787D01*
X91732Y347638D01*
X95276Y344488D01*
X100000Y341732D01*
X103150Y341142D01*
X106496Y341535D01*
X101772Y342520D01*
X97835Y345669D01*
X94291Y349606D01*
X92126Y353150D01*
X91339Y355906D01*
Y358661D01*
X92126Y361024D01*
X94488Y362795D01*
X97244Y363583D01*
X100197Y363780D01*
X102756Y363583D01*
X105315Y362598D01*
X106693Y361024D01*
Y360236D01*
X106102Y359449D01*
X105315Y359843D01*
X104528Y360630D01*
X102165Y361220D01*
X99606D01*
X98031Y360236D01*
X97638Y358858D01*
Y357087D01*
X98425Y355512D01*
X99606Y353346D01*
X100984Y352559D01*
X104331Y350787D01*
X108071Y350197D01*
X112598Y350000D01*
X116339Y350197D01*
X116535Y350591D01*
Y351181D01*
X115354Y351575D01*
X114370Y352362D01*
X113583Y353740D01*
X113386Y355709D01*
X113780Y357480D01*
X114567Y358465D01*
X115354D01*
X115157Y357283D01*
X114961Y356299D01*
X115748Y355315D01*
X117520Y354331D01*
X119685Y353937D01*
X123031Y353740D01*
X131496Y353150D01*
X140354Y352559D01*
X146063Y351181D01*
X151772Y348031D01*
X157480Y343701D01*
X162008Y339370D01*
X166339Y333858D01*
X169685Y328150D01*
X173425Y321654D01*
X174803Y317126D01*
X175000Y315945D01*
X172441Y313780D01*
X170472Y311417D01*
X169291Y309449D01*
X168504Y308465D01*
X167323Y307677D01*
X166339Y304724D01*
X164764Y298622D01*
X163976Y296260D01*
X163189Y291732D01*
X162008Y288189D01*
X161024Y283465D01*
X160630Y281299D01*
X160039Y280118D01*
X159055Y276969D01*
X157283Y270472D01*
X156890Y268701D01*
X156102Y265945D01*
X155709Y258268D01*
X156102Y253740D01*
X157480Y250787D01*
X158858Y249016D01*
X160827Y243307D01*
X161811Y241929D01*
X162402Y236811D01*
X162008Y234843D01*
X162205Y232087D01*
Y231496D01*
X161811Y231299D01*
X152756Y231890D01*
G37*
G36*
X75700Y306913D02*X72000Y308413D01*
X67900Y311613D01*
X65800Y314213D01*
X64900Y317213D01*
X62600Y318013D01*
X60300Y319113D01*
X57300Y320913D01*
X55000Y323013D01*
X54100Y325213D01*
X51100Y326613D01*
X48000Y328313D01*
X45900Y330813D01*
X44700Y332713D01*
X42300Y333813D01*
X40400Y335513D01*
X39100Y337313D01*
X38000Y339313D01*
X35500Y340413D01*
X33100Y341913D01*
X31800Y343813D01*
X29800Y345513D01*
X27400Y346813D01*
X25400Y348913D01*
X24600Y350513D01*
X23600Y352113D01*
X22400Y353013D01*
X20100Y354513D01*
X18800Y355713D01*
X17400Y357413D01*
X16700Y358713D01*
X15000Y359513D01*
X13600Y360713D01*
X12500Y361913D01*
X11600Y363213D01*
X10300Y363913D01*
X9000Y364713D01*
X7300Y366713D01*
X5700Y368413D01*
X5000Y370313D01*
X6800Y369813D01*
X9000Y368613D01*
X10500Y367813D01*
X12200Y366513D01*
X14000Y364913D01*
X16100Y363913D01*
X18200Y362613D01*
X19500Y361013D01*
X21200Y360013D01*
X22500Y359113D01*
X24200Y357413D01*
X25700Y356713D01*
X27400Y355513D01*
X29100Y353813D01*
X30000Y352113D01*
X32000Y351313D01*
X33800Y350613D01*
X35700Y349513D01*
X36700Y348213D01*
X38000Y346713D01*
X39100Y346313D01*
X41300Y345013D01*
X43400Y343513D01*
X45200Y341313D01*
X45900Y340113D01*
X48400Y339213D01*
X50300Y338513D01*
X52500Y336713D01*
X54100Y334813D01*
X55500Y333413D01*
X56900Y332713D01*
X60400Y331013D01*
X63500Y328213D01*
X65400Y325813D01*
X68400Y324113D01*
X72400Y322013D01*
X75400Y319513D01*
X76800Y317913D01*
X79700Y317113D01*
X83600Y314413D01*
X86500Y312513D01*
X87700Y310013D01*
X86900Y307613D01*
X84200Y306113D01*
X79200Y305713D01*
X76500Y305813D01*
X75700Y306913D01*
G37*
G36*
X249606Y191339D02*X253543Y192520D01*
X258268Y193701D01*
X265354D01*
X274409Y191732D01*
X283071Y186614D01*
X290551Y179921D01*
X298425Y168898D01*
X301969Y159843D01*
X303543Y151969D01*
X305906Y145669D01*
X309055Y141732D01*
X313780Y138976D01*
X318504Y138189D01*
X322047D01*
X325197Y138583D01*
X330709Y140157D01*
X335827Y142913D01*
X340945Y148425D01*
X344094Y153543D01*
X346063Y159055D01*
X346850Y162598D01*
Y166142D01*
X346457Y168898D01*
X345276Y172047D01*
X342520Y175591D01*
X339764Y177559D01*
X341732Y178346D01*
X344094Y178740D01*
X347244D01*
X352362Y177559D01*
X355906Y175984D01*
X359843Y173228D01*
X363386Y168504D01*
X365354Y163780D01*
X365748Y158268D01*
Y152756D01*
X364567Y146850D01*
X362992Y141339D01*
X360630Y137402D01*
X357480Y133465D01*
X353543Y129921D01*
X356693Y130315D01*
X359843D01*
X362598Y129528D01*
X366535Y127953D01*
X370079Y124803D01*
X372835Y121260D01*
X374016Y117323D01*
X374409Y113386D01*
X375591Y110236D01*
X376772Y104724D01*
X377559Y96850D01*
X376772Y90551D01*
X375197Y84646D01*
X371654Y79921D01*
X368504Y76772D01*
X363780Y75197D01*
X359843D01*
X356693Y75591D01*
X358661Y76772D01*
X364173Y81496D01*
X366535Y83858D01*
X368110Y86220D01*
X368504Y88189D01*
Y91339D01*
X368110Y94094D01*
X365748Y98031D01*
X361417Y101575D01*
X357874Y102756D01*
X352362D01*
X347638Y101969D01*
X346063Y100787D01*
Y99213D01*
X348031Y96063D01*
X350000Y93307D01*
X352362Y87795D01*
X352756Y83071D01*
X352362Y78740D01*
X350787Y74803D01*
X346063Y69291D01*
X342126Y66142D01*
X336220Y63386D01*
X327165Y61024D01*
X320079Y60236D01*
X311811D01*
X304724Y61024D01*
X295276Y62598D01*
X287795Y66535D01*
X280315Y70866D01*
X275197Y74803D01*
X270472Y79528D01*
X266142Y85827D01*
X261417Y90945D01*
X258661Y93701D01*
X255118Y96457D01*
X255906Y99606D01*
X255512Y101969D01*
X253937Y104331D01*
X252756Y107087D01*
X251969Y109843D01*
X251575Y112992D01*
X251969Y114961D01*
X252362Y115748D01*
X252756Y122835D01*
X252362Y133071D01*
X251969Y147638D01*
X252362Y149213D01*
X252756Y152756D01*
Y155512D01*
X251969Y158268D01*
X250000Y161811D01*
X248425Y168110D01*
X246850Y173228D01*
X246654Y177559D01*
X246850Y180118D01*
X247047Y186024D01*
Y190157D01*
X249606Y191339D01*
G37*
G36*
X102756Y91929D02*X105118Y92323D01*
X107087Y92913D01*
X109055Y93898D01*
X110236Y94685D01*
X111417Y95669D01*
X112205Y96654D01*
X112992Y98031D01*
X113780Y99606D01*
X114173Y100787D01*
X114567Y102165D01*
X114764Y103346D01*
X114961Y104724D01*
X115157Y105315D01*
X116339Y104331D01*
X117717Y102756D01*
X118898Y100984D01*
X119685Y99409D01*
X120276Y97835D01*
X120669Y96260D01*
X120866Y95079D01*
X121000Y93016D01*
X120866Y91142D01*
X120276Y88976D01*
X119488Y87402D01*
X118701Y86220D01*
X116929Y84449D01*
X115551Y83465D01*
X113976Y82677D01*
X112402Y82283D01*
X111024Y82087D01*
X110121Y82016D01*
X108661Y83268D01*
X106693Y85039D01*
X104921Y87008D01*
X103346Y89173D01*
X102362Y90945D01*
X101969Y91929D01*
X102756D01*
G37*
G36*
X70276Y130512D02*X73425Y130709D01*
X77559Y131299D01*
X81890Y132283D01*
X86140Y133637D01*
X86614Y130512D01*
X87205Y128346D01*
X87992Y126378D01*
X88780Y124803D01*
X87008Y123031D01*
X85039Y121260D01*
X83071Y119882D01*
X79331Y117913D01*
X77362Y117126D01*
X74902Y116534D01*
X73228Y117520D01*
X71654Y118898D01*
X70276Y120669D01*
X69291Y122244D01*
X68504Y124409D01*
X68110Y126378D01*
Y129331D01*
X68228Y130440D01*
X70276Y130512D01*
G37*
G36*
X204921Y73228D02*X207677Y73031D01*
X209449D01*
X211614Y73228D01*
X213583Y73622D01*
X215945Y74409D01*
X218307Y75591D01*
X220472Y77165D01*
X221850Y78346D01*
X223031Y79724D01*
X223812Y80813D01*
X224213Y78937D01*
X224803Y75787D01*
X225000Y72638D01*
X225197Y70866D01*
X224409Y69291D01*
X223228Y67520D01*
X221457Y65551D01*
X219488Y63780D01*
X217323Y62402D01*
X214764Y61220D01*
X210236Y60039D01*
X207087D01*
X204921Y60827D01*
X203346Y62205D01*
X202362Y63976D01*
X201969Y65551D01*
Y66929D01*
X202362Y70079D01*
X202953Y72244D01*
X203543Y73228D01*
X204921D01*
G37*
G36*
X252559Y80512D02*X253150Y78346D01*
X253740Y75591D01*
X254046Y74024D01*
X253937Y71260D01*
X253543Y69291D01*
X252756Y67126D01*
X251772Y65354D01*
X250394Y63583D01*
X248425Y61811D01*
X246260Y60433D01*
X244094Y59646D01*
X242126Y59252D01*
X240157Y59055D01*
X238386Y60630D01*
X236811Y62205D01*
X235433Y64173D01*
X234252Y66535D01*
X233465Y68898D01*
X233071Y71063D01*
X233000Y73016D01*
X234843Y73031D01*
X237598Y73425D01*
X240748Y74213D01*
X243307Y75197D01*
X245866Y76575D01*
X247638Y77756D01*
X249606Y79331D01*
X250984Y80709D01*
X252048Y81825D01*
X252559Y80512D01*
G37*
G54D37*X150098Y233055D02*X151761Y230153D01*
X134000Y343016D02*Y319416D01*
X116000Y292016D02*X124000D01*
X151772Y230133D02*X163189Y229331D01*
X114877Y106139D02*X115000Y106016D01*
X114877Y120740D02*Y106139D01*
X63991Y169931D02*X64000Y137016D01*
X89000Y247016D02*G75*G02X84097Y251035I0J5000D01*G01*
X86000Y251016D02*G75*G02X76839Y255927I0J11000D01*G01*
X86000Y251016D02*G75*G03X98000Y263016I0J12000D01*G01*
X89000Y247016D02*G75*G03X96778Y250238I0J11000D01*G01*
X156400Y290216D02*G75*G02X152707Y273695I-38800J0D01*G01*
X147000Y247016D02*G75*G03X150098Y233055I33000J0D01*G01*
X147000Y247016D02*G75*G02X152765Y273777I65000J0D01*G01*
X117004Y259949D02*G75*G03X96812Y250207I1996J-29934D01*G01*
X152000Y299016D02*G75*G02X117191Y260242I-39000J0D01*G01*
X117222Y259961D02*G75*G02X100008Y217519I-157222J39055D01*G01*
X69264Y272432D02*G75*G03X76761Y255875I80736J26584D01*G01*
X69684Y272570D02*G75*G03X87015Y291613I-7184J23946D01*G01*
X81223Y266087D02*G75*G02X86106Y273513I25667J-11560D01*G01*
X86614Y154528D02*G75*G03X90549Y158335I0J3937D01*G01*
X122892Y183154D02*G75*G03X99101Y158042I72108J-92138D01*G01*
X100835Y160951D02*G75*G03X90595Y158333I12165J-68935D01*G01*
X95000Y194016D02*G75*G03X107197Y168638I32500J0D01*G01*
X95000Y194016D02*G75*G02X100055Y217591I57500J0D01*G01*
X86614Y154528D02*G75*G03X87427Y142693I86614J0D01*G01*
X153000Y172016D02*G75*G02X148799Y161209I-16000J0D01*G01*
X89215Y145143D02*G75*G02X99075Y158066I77785J-49127D01*G01*
X112807Y135159D02*G75*G03X148908Y161108I-63807J126857D01*G01*
X160000Y146516D02*G75*G02X135068Y149313I0J112500D01*G01*
X134048Y319349D02*G75*G03X146311Y308251I28952J19667D01*G01*
X128000Y305016D02*G75*G02X134000Y303016I0J-10000D01*G01*
X124000Y292016D02*G75*G03X133950Y303011I0J10000D01*G01*
X149000Y322016D02*G75*G02X146340Y308240I-37000J0D01*G01*
X149000Y322016D02*G75*G03X134188Y343509I-23000J0D01*G01*
X114000Y290016D02*G75*G02X116000Y292016I2000J0D01*G01*
X128000Y305016D02*G75*G03X114000Y291016I0J-14000D01*G01*
X225716Y85810D02*G75*G02X223812Y80813I-65382J22050D01*G01*
X229000Y108016D02*G75*G02X228667Y101249I-69000J0D01*G01*
X228294Y85623D02*G75*G03X232792Y72889I32706J4393D01*G01*
X251801Y82140D02*G75*G03X252601Y91453I-13801J5876D01*G01*
X233000Y73016D02*G75*G03X252048Y81825I0J25000D01*G01*
X224998Y70643D02*G75*G03X223812Y80813I-40998J373D01*G01*
X254046Y74024D02*G75*G03X252118Y82005I-63046J-11008D01*G01*
X240337Y59020D02*G75*G03X253859Y74996I-337J13996D01*G01*
X205322Y121252D02*G75*G03X197234Y127585I-15322J-11236D01*G01*
X176642Y147896D02*G75*G03X197805Y127365I30358J10119D01*G01*
X204831Y176431D02*G75*G03X223422Y119513I46169J-16415D01*G01*
X160000Y146516D02*G75*G03X202173Y159496I0J75000D01*G01*
X229000Y108016D02*G75*G03X223499Y119625I-15000J0D01*G01*
X207000Y113016D02*G75*G03X205318Y121250I-21000J0D01*G01*
X207000Y113016D02*G75*G02X204437Y98217I-44000J0D01*G01*
X202000Y66016D02*G75*G02X203382Y73509I21000J0D01*G01*
X209000Y73016D02*G75*G02X204025Y73264I0J50000D01*G01*
X202000Y84016D02*G75*G03X203591Y73134I38000J0D01*G01*
X233000Y73016D02*G75*G03X240337Y59029I17000J0D01*G01*
X208000Y60016D02*G75*G02X202000Y66016I0J6000D01*G01*
X208000Y60016D02*G75*G03X225055Y70642I0J19000D01*G01*
X223833Y80818D02*G75*G02X209000Y73016I-14833J10198D01*G01*
X202000Y84016D02*G75*G02X204415Y98224I43000J0D01*G01*
X86000Y136016D02*G75*G02X89391Y145514I15000J0D01*G01*
X105646Y129339D02*G75*G03X112839Y135096I-2646J10677D01*G01*
X114877Y120740D02*G75*G02X105761Y128875I8123J18276D01*G01*
X101850Y91941D02*G75*G03X111869Y96099I0J14150D01*G01*
X111833Y96135D02*G75*G03X115000Y106016I-13833J9881D01*G01*
X101850Y91941D02*G75*G03X110240Y82092I24150J12075D01*G01*
X121000Y93016D02*G75*G02X110436Y82024I-11000J0D01*G01*
X121000Y93016D02*G75*G03X115243Y105307I-16000J0D01*G01*
X102473Y91489D02*G75*G02X89000Y124016I32527J32527D01*G01*
X86000Y136016D02*G75*G03X89053Y124044I25000J0D01*G01*
X68228Y130440D02*G75*G03X86140Y133637I0J51772D01*G01*
X63991Y169931D02*G75*G03X95036Y198064I-56991J94085D01*G01*
X74895Y116520D02*G75*G03X88358Y124556I-4895J23496D01*G01*
X68228Y130440D02*G75*G03X74902Y116534I12772J-2424D01*G01*
X68045Y130475D02*G75*G02X63860Y136956I16955J15541D01*G01*
G54D40*X285703Y284781D02*Y273436D01*
Y284781D02*X290563Y273436D01*
X286513Y284781D02*X290563Y275056D01*
X295423Y284781D02*X290563Y273436D01*
X295423Y284781D02*Y273436D01*
X296238Y284781D02*Y273436D01*
X283268Y284781D02*X286513D01*
X295423D02*X298668D01*
X283268Y273436D02*X288133D01*
X292993D02*X298668D01*
X306288Y283161D02*Y282351D01*
X305478D01*
Y283161D01*
X306288Y283971D01*
X307908Y284781D01*
X311148D01*
X312768Y283971D01*
X313578Y283161D01*
X314388Y281541D01*
Y275871D01*
X315203Y274246D01*
X316013Y273436D01*
X313578Y283161D02*Y275871D01*
X314388Y274246D01*
X316013Y273436D01*
X316823D01*
X313578Y281541D02*X312768Y280731D01*
X307908Y279921D01*
X305478Y279111D01*
X304668Y277491D01*
Y275871D01*
X305478Y274246D01*
X307908Y273436D01*
X310338D01*
X311958Y274246D01*
X313578Y275871D01*
X307908Y279921D02*X306288Y279111D01*
X305478Y277491D01*
Y275871D01*
X306288Y274246D01*
X307908Y273436D01*
X325258Y284781D02*Y279111D01*
X326068Y277491D01*
X328498Y276681D01*
X330118D01*
X332548Y277491D01*
X334168Y279111D01*
X326068Y284781D02*Y279111D01*
X326878Y277491D01*
X328498Y276681D01*
X334168Y284781D02*Y273436D01*
X334978Y284781D02*Y273436D01*
X322823Y284781D02*X328498D01*
X331738D02*X337413D01*
X331738Y273436D02*X337413D01*
X348278Y284781D02*X345848Y283971D01*
X344228Y282351D01*
X343413Y279921D01*
Y278301D01*
X344228Y275871D01*
X345848Y274246D01*
X348278Y273436D01*
X349898D01*
X352328Y274246D01*
X353948Y275871D01*
X354763Y278301D01*
Y279921D01*
X353948Y282351D01*
X352328Y283971D01*
X349898Y284781D01*
X348278D01*
X346658Y283971D01*
X345038Y282351D01*
X344228Y279921D01*
Y278301D01*
X345038Y275871D01*
X346658Y274246D01*
X348278Y273436D01*
X349898D02*X351518Y274246D01*
X353138Y275871D01*
X353948Y278301D01*
Y279921D01*
X353138Y282351D01*
X351518Y283971D01*
X349898Y284781D01*
X285703Y312340D02*Y300995D01*
Y312340D02*X290563Y300995D01*
X286513Y312340D02*X290563Y302615D01*
X295423Y312340D02*X290563Y300995D01*
X295423Y312340D02*Y300995D01*
X296238Y312340D02*Y300995D01*
X283268Y312340D02*X286513D01*
X295423D02*X298668D01*
X283268Y300995D02*X288133D01*
X292993D02*X298668D01*
X306288Y310720D02*Y309910D01*
X305478D01*
Y310720D01*
X306288Y311530D01*
X307908Y312340D01*
X311148D01*
X312768Y311530D01*
X313578Y310720D01*
X314388Y309100D01*
Y303430D01*
X315203Y301805D01*
X316013Y300995D01*
X313578Y310720D02*Y303430D01*
X314388Y301805D01*
X316013Y300995D01*
X316823D01*
X313578Y309100D02*X312768Y308290D01*
X307908Y307480D01*
X305478Y306670D01*
X304668Y305050D01*
Y303430D01*
X305478Y301805D01*
X307908Y300995D01*
X310338D01*
X311958Y301805D01*
X313578Y303430D01*
X307908Y307480D02*X306288Y306670D01*
X305478Y305050D01*
Y303430D01*
X306288Y301805D01*
X307908Y300995D01*
X325258Y312340D02*Y306670D01*
X326068Y305050D01*
X328498Y304240D01*
X330118D01*
X332548Y305050D01*
X334168Y306670D01*
X326068Y312340D02*Y306670D01*
X326878Y305050D01*
X328498Y304240D01*
X334168Y312340D02*Y300995D01*
X334978Y312340D02*Y300995D01*
X322823Y312340D02*X328498D01*
X331738D02*X337413D01*
X331738Y300995D02*X337413D01*
X348278Y312340D02*X345848Y311530D01*
X344228Y309910D01*
X343413Y307480D01*
Y305860D01*
X344228Y303430D01*
X345848Y301805D01*
X348278Y300995D01*
X349898D01*
X352328Y301805D01*
X353948Y303430D01*
X354763Y305860D01*
Y307480D01*
X353948Y309910D01*
X352328Y311530D01*
X349898Y312340D01*
X348278D01*
X346658Y311530D01*
X345038Y309910D01*
X344228Y307480D01*
Y305860D01*
X345038Y303430D01*
X346658Y301805D01*
X348278Y300995D01*
X349898D02*X351518Y301805D01*
X353138Y303430D01*
X353948Y305860D01*
Y307480D01*
X353138Y309910D01*
X351518Y311530D01*
X349898Y312340D01*
X276844Y257222D02*Y251552D01*
X277654Y249932D01*
X280084Y249122D01*
X281704D01*
X284134Y249932D01*
X285754Y251552D01*
X277654Y257222D02*Y251552D01*
X278464Y249932D01*
X280084Y249122D01*
X285754Y257222D02*Y245877D01*
X286564Y257222D02*Y245877D01*
X274409Y257222D02*X280084D01*
X283324D02*X288999D01*
X283324Y245877D02*X288999D01*
X296624Y257222D02*X301484Y245877D01*
X297434Y257222D02*X301484Y247497D01*
X306344Y257222D02*X301484Y245877D01*
X299864Y242632D01*
X298244Y241012D01*
X296624Y240202D01*
X295809D01*
X294999Y241012D01*
X295809Y241822D01*
X296624Y241012D01*
X294999Y257222D02*X299864D01*
X303104D02*X307969D01*
X316404D02*Y245877D01*
X317214Y257222D02*Y245877D01*
X313969Y257222D02*X322884D01*
X325314Y256412D01*
X326129Y254792D01*
Y253982D01*
X325314Y252362D01*
X322884Y251552D01*
Y257222D02*X324504Y256412D01*
X325314Y254792D01*
Y253982D01*
X324504Y252362D01*
X322884Y251552D01*
X317214D02*X322884D01*
X325314Y250742D01*
X326129Y249122D01*
Y248312D01*
X325314Y246687D01*
X322884Y245877D01*
X313969D01*
X322884Y251552D02*X324504Y250742D01*
X325314Y249122D01*
Y248312D01*
X324504Y246687D01*
X322884Y245877D01*
X333749Y255602D02*Y254792D01*
X332939D01*
Y255602D01*
X333749Y256412D01*
X335369Y257222D01*
X338609D01*
X340229Y256412D01*
X341039Y255602D01*
X341849Y253982D01*
Y248312D01*
X342664Y246687D01*
X343474Y245877D01*
X341039Y255602D02*Y248312D01*
X341849Y246687D01*
X343474Y245877D01*
X344284D01*
X341039Y253982D02*X340229Y253172D01*
X335369Y252362D01*
X332939Y251552D01*
X332129Y249932D01*
Y248312D01*
X332939Y246687D01*
X335369Y245877D01*
X337799D01*
X339419Y246687D01*
X341039Y248312D01*
X335369Y252362D02*X333749Y251552D01*
X332939Y249932D01*
Y248312D01*
X333749Y246687D01*
X335369Y245877D01*
X352719Y257222D02*Y245877D01*
X353529Y257222D02*Y245877D01*
X350284Y257222D02*X355959D01*
X353529Y251552D02*X355149D01*
X357579Y252362D01*
X358389Y253172D01*
X360009Y256412D01*
X360819Y257222D01*
X361629D01*
X362444Y256412D01*
X361629Y255602D01*
X360819Y256412D01*
X355149Y251552D02*X357579Y250742D01*
X358389Y249932D01*
X360009Y246687D01*
X360819Y245877D01*
X355149Y251552D02*X356769Y250742D01*
X357579Y249932D01*
X359199Y246687D01*
X360009Y245877D01*
X361629D01*
X362444Y246687D01*
X363254Y248312D01*
X350284Y245877D02*X355959D01*
M02*
