G04 start of page 2 for group 10 layer_idx 5 *
G04 Title: (unknown), bottom_silk *
G04 Creator: pcb-rnd 3.1.5-dev *
G04 CreationDate: 2024-03-24 11:16:41 UTC *
G04 For: STEM4ukraine *
G04 Format: Gerber/RS-274X *
G04 PCB-Dimensions: 393701 374016 *
G04 PCB-Coordinate-Origin: lower left *
%MOIN*%
%FSLAX25Y25*%
%LNBOTTOM_SILK_NONE_10*%
%ADD44C,0.0180*%
%ADD43C,0.0070*%
%ADD42C,0.0200*%
%ADD41C,0.0100*%
G54D41*X118488Y302570D02*Y293887D01*
X93701Y293504D02*Y290354D01*
X79528D01*
Y306496D01*
X93701Y293504D02*X79528D01*
X91339D02*Y306496D01*
X307000Y54016D02*X327000D01*
X307000D02*Y44016D01*
X317000D01*
X88976Y290354D02*Y265551D01*
X81496Y290354D02*Y275000D01*
X327000Y44016D02*Y54016D01*
Y44016D02*X307000D01*
X317000Y54016D02*Y44016D01*
X367972Y8701D02*Y28701D01*
X362972Y33701D01*
X347972D01*
X342972Y28701D01*
Y8701D01*
X367972D01*
G54D42*X331693Y42126D02*Y27638D01*
X379094Y42126D02*Y27638D01*
Y394D02*X331693D01*
Y7874D02*Y394D01*
Y42126D02*X379094D01*
Y7874D02*Y394D01*
G54D41*X118488Y302570D02*G75*G02X131512Y293887I6512J-4341D01*G01*
X131512Y293887D02*G75*G02X118488Y293887I-6512J4341D01*G01*
X91339Y306496D02*G75*G03X79528Y306496I-5906J0D01*G01*
G54D43*X384843Y110220D02*X382843D01*
X382343Y109720D01*
Y108720D01*
X382843Y108220D02*X382343Y108720D01*
X384343Y108220D02*X382843D01*
X384343Y110220D02*Y106220D01*
X383543Y108220D02*X382343Y106220D01*
X381143Y109720D02*X380643Y110220D01*
X379643D01*
X379143Y109720D01*
X379643Y106220D02*X379143Y106720D01*
X380643Y106220D02*X379643D01*
X381143Y106720D02*X380643Y106220D01*
Y108420D02*X379643D01*
X379143Y109720D02*Y108920D01*
Y107920D02*Y106720D01*
Y107920D02*X379643Y108420D01*
X379143Y108920D02*X379643Y108420D01*
X372543Y109720D02*X372043Y110220D01*
X370543D01*
X370043Y109720D01*
Y108720D01*
X372543Y106220D02*X370043Y108720D01*
X372543Y106220D02*X370043D01*
X368843Y109720D02*X368343Y110220D01*
X366843D01*
X366343Y109720D01*
Y108720D01*
X368843Y106220D02*X366343Y108720D01*
X368843Y106220D02*X366343D01*
X365143Y106720D02*X364643Y106220D01*
X365143Y109720D02*Y106720D01*
Y109720D02*X364643Y110220D01*
X363643D01*
X363143Y109720D01*
Y106720D01*
X363643Y106220D02*X363143Y106720D01*
X364643Y106220D02*X363643D01*
X365143Y107220D02*X363143Y109220D01*
X361942Y110220D02*X359942D01*
X359442Y109720D01*
Y108720D01*
X359942Y108220D02*X359442Y108720D01*
X361442Y108220D02*X359942D01*
X361442Y110220D02*Y106220D01*
X360642Y108220D02*X359442Y106220D01*
X384843Y117110D02*X382843D01*
X382343Y116610D01*
Y115610D01*
X382843Y115110D02*X382343Y115610D01*
X384343Y115110D02*X382843D01*
X384343Y117110D02*Y113110D01*
X383543Y115110D02*X382343Y113110D01*
X381143Y116610D02*X380643Y117110D01*
X379143D01*
X378643Y116610D01*
Y115610D01*
X381143Y113110D02*X378643Y115610D01*
X381143Y113110D02*X378643D01*
X372043Y114610D02*X370043Y117110D01*
X372043Y114610D02*X369543D01*
X370043Y117110D02*Y113110D01*
X367843D02*X365843Y117110D01*
X368343D02*X365843D01*
X364643D02*Y113110D01*
Y114610D02*X363143Y113110D01*
X364643Y114610D02*X363643Y115610D01*
X384843Y124000D02*X382843D01*
X382343Y123500D01*
Y122500D01*
X382843Y122000D02*X382343Y122500D01*
X384343Y122000D02*X382843D01*
X384343Y124000D02*Y120000D01*
X383543Y122000D02*X382343Y120000D01*
X381143Y123200D02*X380343Y124000D01*
Y120000D01*
X381143D02*X379643D01*
X371243Y123200D02*X370443Y124000D01*
Y120000D01*
X371243D02*X369743D01*
X368543Y120500D02*X368043Y120000D01*
X368543Y123500D02*Y120500D01*
Y123500D02*X368043Y124000D01*
X367043D01*
X366543Y123500D01*
Y120500D01*
X367043Y120000D02*X366543Y120500D01*
X368043Y120000D02*X367043D01*
X368543Y121000D02*X366543Y123000D01*
X365343Y124000D02*Y120000D01*
Y121500D02*X363843Y120000D01*
X365343Y121500D02*X364343Y122500D01*
X324787Y58102D02*X324287Y58602D01*
X324787Y56602D02*Y58102D01*
X324287Y56102D02*X324787Y56602D01*
X324287Y56102D02*X321287D01*
X320787Y56602D01*
Y58102D01*
X321287Y58602D01*
X322287D02*X321287D01*
X322787Y58102D02*X322287Y58602D01*
X322787Y57102D02*Y58102D01*
X324787Y59802D02*X320787D01*
X324787D02*X320787Y62302D01*
X324787D02*X320787D01*
X324787Y64002D02*X320787D01*
X324787Y65302D02*X324087Y66002D01*
X321487D01*
X320787Y65302D02*X321487Y66002D01*
X320787Y63502D02*Y65302D01*
X324787Y63502D02*Y65302D01*
X384143Y99331D02*X382843D01*
X384843Y100031D02*X384143Y99331D01*
X384843Y102631D02*Y100031D01*
Y102631D02*X384143Y103331D01*
X382843D01*
X381643Y102531D02*X380843Y103331D01*
Y99331D01*
X381643D02*X380143D01*
X371743Y102531D02*X370943Y103331D01*
Y99331D01*
X371743D02*X370243D01*
X369043Y99831D02*X368543Y99331D01*
X369043Y102831D02*Y99831D01*
Y102831D02*X368543Y103331D01*
X367543D01*
X367043Y102831D01*
Y99831D01*
X367543Y99331D02*X367043Y99831D01*
X368543Y99331D02*X367543D01*
X369043Y100331D02*X367043Y102331D01*
X365843Y99831D02*X365343Y99331D01*
X365843Y102831D02*Y99831D01*
Y102831D02*X365343Y103331D01*
X364343D01*
X363843Y102831D01*
Y99831D01*
X364343Y99331D02*X363843Y99831D01*
X365343Y99331D02*X364343D01*
X365843Y100331D02*X363843Y102331D01*
X362142Y100831D02*Y99331D01*
Y100831D02*X361642Y101331D01*
X361142D01*
X360642Y100831D01*
Y99331D01*
X362642Y101331D02*X362142Y100831D01*
X384843Y96441D02*Y92441D01*
X382843D01*
X381643Y94641D02*X380143D01*
X381643Y92441D02*X379643D01*
X381643Y96441D02*Y92441D01*
Y96441D02*X379643D01*
X377943D02*Y92441D01*
X376643Y96441D02*X375943Y95741D01*
Y93141D01*
X376643Y92441D02*X375943Y93141D01*
X378443Y92441D02*X376643D01*
X378443Y96441D02*X376643D01*
X374743Y95641D02*X373943Y96441D01*
Y92441D01*
X374743D02*X373243D01*
X366643Y95941D02*X366143Y96441D01*
X365143D01*
X364643Y95941D01*
X365143Y92441D02*X364643Y92941D01*
X366143Y92441D02*X365143D01*
X366643Y92941D02*X366143Y92441D01*
Y94641D02*X365143D01*
X364643Y95941D02*Y95141D01*
Y94141D02*Y92941D01*
Y94141D02*X365143Y94641D01*
X364643Y95141D02*X365143Y94641D01*
X362942Y93941D02*Y92441D01*
Y93941D02*X362442Y94441D01*
X361942D01*
X361442Y93941D01*
Y92441D01*
Y93941D02*X360942Y94441D01*
X360442D01*
X359942Y93941D01*
Y92441D01*
X363442Y94441D02*X362942Y93941D01*
X358242D02*Y92441D01*
Y93941D02*X357742Y94441D01*
X357242D01*
X356742Y93941D01*
Y92441D01*
Y93941D02*X356242Y94441D01*
X355742D01*
X355242Y93941D01*
Y92441D01*
X358742Y94441D02*X358242Y93941D01*
X352242Y92441D02*X350242D01*
X349742Y92941D01*
Y94141D02*Y92941D01*
X350242Y94641D02*X349742Y94141D01*
X351742Y94641D02*X350242D01*
X351742Y96441D02*Y92441D01*
X352242Y96441D02*X350242D01*
X349742Y95941D01*
Y95141D01*
X350242Y94641D02*X349742Y95141D01*
X348542Y96441D02*Y92441D01*
X346542D01*
X345342Y96441D02*Y92941D01*
X344842Y92441D01*
X343842D01*
X343342Y92941D01*
Y96441D02*Y92941D01*
X342142Y94641D02*X340642D01*
X342142Y92441D02*X340142D01*
X342142Y96441D02*Y92441D01*
Y96441D02*X340142D01*
X384343Y89551D02*Y85551D01*
X384843Y89551D02*X382843D01*
X382343Y89051D01*
Y88051D01*
X382843Y87551D02*X382343Y88051D01*
X384343Y87551D02*X382843D01*
X381143Y89551D02*X380143D01*
X380643D02*Y85551D01*
X381143D02*X380143D01*
X378943Y87751D02*X377443D01*
X378943Y85551D02*X376943D01*
X378943Y89551D02*Y85551D01*
Y89551D02*X376943D01*
X375743D02*X373243D01*
X375743Y85551D02*X373243Y89551D01*
X375743Y85551D02*X373243D01*
X372043Y89051D02*Y86051D01*
Y89051D02*X371543Y89551D01*
X370543D01*
X370043Y89051D01*
Y86051D01*
X370543Y85551D02*X370043Y86051D01*
X371543Y85551D02*X370543D01*
X372043Y86051D02*X371543Y85551D01*
X366542Y89551D02*Y85551D01*
X367042Y89551D02*X365042D01*
X364542Y89051D01*
Y88051D01*
X365042Y87551D02*X364542Y88051D01*
X366542Y87551D02*X365042D01*
X363342Y89551D02*X362342D01*
X362842D02*Y85551D01*
X363342D02*X362342D01*
X361142Y87751D02*X359642D01*
X361142Y85551D02*X359142D01*
X361142Y89551D02*Y85551D01*
Y89551D02*X359142D01*
X357942D02*X355442D01*
X357942Y85551D02*X355442Y89551D01*
X357942Y85551D02*X355442D01*
X354242Y89051D02*Y86051D01*
Y89051D02*X353742Y89551D01*
X352742D01*
X352242Y89051D01*
Y86051D01*
X352742Y85551D02*X352242Y86051D01*
X353742Y85551D02*X352742D01*
X354242Y86051D02*X353742Y85551D01*
X347242Y89551D02*X346742Y89051D01*
X348742Y89551D02*X347242D01*
X349242Y89051D02*X348742Y89551D01*
X349242Y89051D02*Y88051D01*
X348742Y87551D01*
X347242D01*
X346742Y87051D01*
Y86051D01*
X347242Y85551D02*X346742Y86051D01*
X348742Y85551D02*X347242D01*
X349242Y86051D02*X348742Y85551D01*
X345042Y89551D02*Y85551D01*
X345542Y89551D02*X343542D01*
X343042Y89051D01*
Y88051D01*
X343542Y87551D02*X343042Y88051D01*
X345042Y87551D02*X343542D01*
X341842Y87751D02*X340342D01*
X341842Y85551D02*X339842D01*
X341842Y89551D02*Y85551D01*
Y89551D02*X339842D01*
X338642Y88551D02*Y85551D01*
Y88551D02*X337942Y89551D01*
X336842D01*
X336142Y88551D01*
Y85551D01*
X338642Y87551D02*X336142D01*
X334942Y89551D02*Y85551D01*
Y87551D02*X332942Y89551D01*
X334942Y87551D02*X332942Y85551D01*
X331742Y87751D02*X330242D01*
X331742Y85551D02*X329742D01*
X331742Y89551D02*Y85551D01*
Y89551D02*X329742D01*
X328542D02*X326542D01*
X326042Y89051D01*
Y88051D01*
X326542Y87551D02*X326042Y88051D01*
X328042Y87551D02*X326542D01*
X328042Y89551D02*Y85551D01*
X327242Y87551D02*X326042Y85551D01*
X384843Y82661D02*Y79161D01*
X384343Y78661D01*
X383343D01*
X382843Y79161D01*
Y82661D02*Y79161D01*
X381643Y81861D02*X380843Y82661D01*
Y78661D01*
X381643D02*X380143D01*
X371743Y81661D02*Y78661D01*
Y81661D02*X371043Y82661D01*
X369943D01*
X369243Y81661D01*
Y78661D01*
X371743Y80661D02*X369243D01*
X368043Y82661D02*X366043D01*
X367043D02*Y78661D01*
X364843Y82661D02*X362843D01*
X363843D02*Y78661D01*
X361642Y82661D02*X360642D01*
X361142D02*Y78661D01*
X361642D02*X360642D01*
X359442Y82661D02*Y78661D01*
Y82661D02*X356942Y78661D01*
Y82661D02*Y78661D01*
X355742Y82661D02*X354742Y80661D01*
X353742Y82661D01*
X354742Y80661D02*Y78661D01*
X352542Y81861D02*X351742Y82661D01*
Y78661D01*
X352542D02*X351042D01*
X349842Y82161D02*X349342Y82661D01*
X348342D01*
X347842Y82161D01*
X348342Y78661D02*X347842Y79161D01*
X349342Y78661D02*X348342D01*
X349842Y79161D02*X349342Y78661D01*
Y80861D02*X348342D01*
X347842Y82161D02*Y81361D01*
Y80361D02*Y79161D01*
Y80361D02*X348342Y80861D01*
X347842Y81361D02*X348342Y80861D01*
X387972Y50201D02*Y46701D01*
X387472Y46201D01*
X386472D01*
X385972Y46701D01*
Y50201D02*Y46701D01*
X382772Y50201D02*X382272Y49701D01*
X384272Y50201D02*X382772D01*
X384772Y49701D02*X384272Y50201D01*
X384772Y49701D02*Y48701D01*
X384272Y48201D01*
X382772D01*
X382272Y47701D01*
Y46701D01*
X382772Y46201D02*X382272Y46701D01*
X384272Y46201D02*X382772D01*
X384772Y46701D02*X384272Y46201D01*
X381072D02*X379072D01*
X378572Y46701D01*
Y47901D02*Y46701D01*
X379072Y48401D02*X378572Y47901D01*
X380572Y48401D02*X379072D01*
X380572Y50201D02*Y46201D01*
X381072Y50201D02*X379072D01*
X378572Y49701D01*
Y48901D01*
X379072Y48401D02*X378572Y48901D01*
X377372Y46201D02*X375372D01*
X374172D02*X372172D01*
X371672Y46701D01*
Y47901D02*Y46701D01*
X372172Y48401D02*X371672Y47901D01*
X373672Y48401D02*X372172D01*
X373672Y50201D02*Y46201D01*
X374172Y50201D02*X372172D01*
X371672Y49701D01*
Y48901D01*
X372172Y48401D02*X371672Y48901D01*
G54D44*X327661Y356252D02*X326161Y354752D01*
X332161Y356252D02*X327661D01*
X333661Y354752D02*X332161Y356252D01*
X333661Y354752D02*Y351752D01*
X332161Y350252D01*
X327661D01*
X326161Y348752D01*
Y345752D01*
X327661Y344252D02*X326161Y345752D01*
X332161Y344252D02*X327661D01*
X333661Y345752D02*X332161Y344252D01*
X322561Y356252D02*X316561D01*
X319561D02*Y344252D01*
X312961Y350852D02*X308461D01*
X312961Y344252D02*X306961D01*
X312961Y356252D02*Y344252D01*
Y356252D02*X306961D01*
X303361D02*Y344252D01*
Y356252D02*X298861Y350252D01*
X294361Y356252D01*
Y344252D01*
X290761Y348752D02*X284761Y356252D01*
X290761Y348752D02*X283261D01*
X284761Y356252D02*Y344252D01*
X279661Y350252D02*Y345752D01*
X278161Y344252D01*
X275161D01*
X273661Y345752D01*
Y350252D02*Y345752D01*
X270061Y356252D02*Y344252D01*
Y348752D02*X265561Y344252D01*
X270061Y348752D02*X267061Y351752D01*
X260461Y348752D02*Y344252D01*
Y348752D02*X258961Y350252D01*
X255961D01*
X261961D02*X260461Y348752D01*
X247861Y350252D02*X246361Y348752D01*
X250861Y350252D02*X247861D01*
X252361Y348752D02*X250861Y350252D01*
X252361Y348752D02*Y345752D01*
X250861Y344252D01*
X246361Y350252D02*Y345752D01*
X244861Y344252D01*
X250861D02*X247861D01*
X246361Y345752D01*
X241261Y353252D02*Y352952D01*
Y348752D02*Y344252D01*
X236761Y348752D02*Y344252D01*
Y348752D02*X235261Y350252D01*
X233761D01*
X232261Y348752D01*
Y344252D01*
X238261Y350252D02*X236761Y348752D01*
X227161Y344252D02*X222661D01*
X228661Y345752D02*X227161Y344252D01*
X228661Y348752D02*Y345752D01*
Y348752D02*X227161Y350252D01*
X224161D01*
X222661Y348752D01*
X228661Y347252D02*X222661D01*
Y348752D01*
X219061Y350252D02*X213061D01*
X209461Y356252D02*Y344252D01*
Y356252D02*X204961Y350252D01*
X200461Y356252D01*
Y344252D01*
X192361Y350252D02*X190861Y348752D01*
X195361Y350252D02*X192361D01*
X196861Y348752D02*X195361Y350252D01*
X196861Y348752D02*Y345752D01*
X195361Y344252D01*
X190861Y350252D02*Y345752D01*
X189361Y344252D01*
X195361D02*X192361D01*
X190861Y345752D01*
X184261Y350252D02*X179761D01*
X185761Y348752D02*X184261Y350252D01*
X185761Y348752D02*Y345752D01*
X184261Y344252D01*
X179761D01*
X176161Y356252D02*Y344252D01*
Y348752D02*X174661Y350252D01*
X171661D01*
X170161Y348752D01*
Y344252D01*
X166561Y348752D02*Y345752D01*
Y348752D02*X165061Y350252D01*
X162061D01*
X160561Y348752D01*
Y345752D01*
X162061Y344252D02*X160561Y345752D01*
X165061Y344252D02*X162061D01*
X166561Y345752D02*X165061Y344252D01*
X156961Y350252D02*X150961D01*
X147361Y356252D02*Y344252D01*
Y356252D02*X142861Y350252D01*
X138361Y356252D01*
Y344252D01*
X130261Y350252D02*X128761Y348752D01*
X133261Y350252D02*X130261D01*
X134761Y348752D02*X133261Y350252D01*
X134761Y348752D02*Y345752D01*
X133261Y344252D01*
X128761Y350252D02*Y345752D01*
X127261Y344252D01*
X133261D02*X130261D01*
X128761Y345752D01*
X122161Y350252D02*X117661D01*
X123661Y348752D02*X122161Y350252D01*
X123661Y348752D02*Y345752D01*
X122161Y344252D01*
X117661D01*
X114061Y356252D02*Y344252D01*
Y348752D02*X112561Y350252D01*
X109561D01*
X108061Y348752D01*
Y344252D01*
X104461Y348752D02*Y345752D01*
Y348752D02*X102961Y350252D01*
X99961D01*
X98461Y348752D01*
Y345752D01*
X99961Y344252D02*X98461Y345752D01*
X102961Y344252D02*X99961D01*
X104461Y345752D02*X102961Y344252D01*
X94861Y350252D02*X88861D01*
X85261Y356252D02*Y344252D01*
Y356252D02*X80761Y350252D01*
X76261Y356252D01*
Y344252D01*
X68161Y350252D02*X66661Y348752D01*
X71161Y350252D02*X68161D01*
X72661Y348752D02*X71161Y350252D01*
X72661Y348752D02*Y345752D01*
X71161Y344252D01*
X66661Y350252D02*Y345752D01*
X65161Y344252D01*
X71161D02*X68161D01*
X66661Y345752D01*
X60061Y348752D02*Y344252D01*
Y348752D02*X58561Y350252D01*
X57061D01*
X55561Y348752D01*
Y344252D01*
X61561Y350252D02*X60061Y348752D01*
X203740Y319740D02*X200740Y313740D01*
X197740Y319740D02*X200740Y313740D01*
X194140Y323340D02*X191740Y325740D01*
Y313740D01*
X194140D02*X189640D01*
G54D43*X147835Y300378D02*Y296378D01*
X145835D01*
X144635Y298578D02*X143135D01*
X144635Y296378D02*X142635D01*
X144635Y300378D02*Y296378D01*
Y300378D02*X142635D01*
X140935D02*Y296378D01*
X139635Y300378D02*X138935Y299678D01*
Y297078D01*
X139635Y296378D02*X138935Y297078D01*
X141435Y296378D02*X139635D01*
X141435Y300378D02*X139635D01*
X137735Y299578D02*X136935Y300378D01*
Y296378D01*
X137735D02*X136235D01*
X311724Y56524D02*Y58024D01*
X309524Y56524D02*Y58524D01*
X313524Y56524D02*X309524D01*
X313524D02*Y58524D01*
X309524Y59724D02*X313524Y62224D01*
Y59724D02*X309524Y62224D01*
X313524Y63424D02*Y65424D01*
Y64424D02*X309524D01*
Y66624D02*Y68624D01*
X313524Y69824D02*Y71824D01*
Y69824D02*X311524D01*
X312024Y70324D01*
Y71324D01*
X311524Y71824D01*
X310024D01*
X309524Y71324D02*X310024Y71824D01*
X309524Y70324D02*Y71324D01*
X310024Y69824D02*X309524Y70324D01*
X313524Y73024D02*X309524Y74024D01*
X313524Y75024D01*
X377205Y40142D02*Y36642D01*
X376705Y36142D01*
X375705D01*
X375205Y36642D01*
Y40142D02*Y36642D01*
X372005Y40142D02*X371505Y39642D01*
X373505Y40142D02*X372005D01*
X374005Y39642D02*X373505Y40142D01*
X374005Y39642D02*Y38642D01*
X373505Y38142D01*
X372005D01*
X371505Y37642D01*
Y36642D01*
X372005Y36142D02*X371505Y36642D01*
X373505Y36142D02*X372005D01*
X374005Y36642D02*X373505Y36142D01*
X370305D02*X368305D01*
X367805Y36642D01*
Y37842D02*Y36642D01*
X368305Y38342D02*X367805Y37842D01*
X369805Y38342D02*X368305D01*
X369805Y40142D02*Y36142D01*
X370305Y40142D02*X368305D01*
X367805Y39642D01*
Y38842D01*
X368305Y38342D02*X367805Y38842D01*
X364805Y36142D02*X362805D01*
X362305Y36642D01*
Y37842D02*Y36642D01*
X362805Y38342D02*X362305Y37842D01*
X364305Y38342D02*X362805D01*
X364305Y40142D02*Y36142D01*
X364805Y40142D02*X362805D01*
X362305Y39642D01*
Y38842D01*
X362805Y38342D02*X362305Y38842D01*
X359305Y38142D02*X358305Y36142D01*
X357305Y38142D02*X358305Y36142D01*
X355605D02*X354105D01*
X356105Y36642D02*X355605Y36142D01*
X356105Y37642D02*Y36642D01*
Y37642D02*X355605Y38142D01*
X354605D01*
X354105Y37642D01*
X356105Y37142D02*X354105D01*
Y37642D01*
X352405D02*Y36142D01*
Y37642D02*X351905Y38142D01*
X350905D01*
X352905D02*X352405Y37642D01*
X349205Y40142D02*Y36642D01*
X348705Y36142D01*
X349705Y38642D02*X348705D01*
X347705Y39142D02*Y39042D01*
Y37642D02*Y36142D01*
X346205Y38142D02*X344705D01*
X346705Y37642D02*X346205Y38142D01*
X346705Y37642D02*Y36642D01*
X346205Y36142D01*
X344705D01*
X342005Y38142D02*X341505Y37642D01*
X343005Y38142D02*X342005D01*
X343505Y37642D02*X343005Y38142D01*
X343505Y37642D02*Y36642D01*
X343005Y36142D01*
X341505Y38142D02*Y36642D01*
X341005Y36142D01*
X343005D02*X342005D01*
X341505Y36642D01*
X339805Y40142D02*Y36642D01*
X339305Y36142D01*
X342067Y33449D02*X341067Y29449D01*
X340067Y33449D01*
X338367Y31449D02*X336867D01*
X338867Y30949D02*X338367Y31449D01*
X338867Y30949D02*Y29949D01*
X338367Y29449D01*
X336867D01*
X335167Y31449D02*X333667D01*
X335667Y30949D02*X335167Y31449D01*
X335667Y30949D02*Y29949D01*
X335167Y29449D01*
X333667D01*
X342035Y6874D02*X341535Y6374D01*
X343535Y6874D02*X342035D01*
X344035Y6374D02*X343535Y6874D01*
X344035Y6374D02*Y3374D01*
X343535Y2874D01*
X342035D01*
X341535Y3374D01*
Y4374D02*Y3374D01*
X342035Y4874D02*X341535Y4374D01*
X343035Y4874D02*X342035D01*
X340335Y6874D02*Y2874D01*
Y6874D02*X337835Y2874D01*
Y6874D02*Y2874D01*
X336135Y6874D02*Y2874D01*
X334835Y6874D02*X334135Y6174D01*
Y3574D01*
X334835Y2874D02*X334135Y3574D01*
X336635Y2874D02*X334835D01*
X336635Y6874D02*X334835D01*
M02*
