M48
INCH
T15C0.122
T14C0.035
T13C0.031
T12C0.037
T11C0.039
%
T13
G05
X027000Y001902
T14
X028000Y001902
X030000Y001902
T12
X035047Y002756
X036031Y002756
X035047Y001496
X036031Y001496
T11
X019766Y004152
X018766Y004152
X017766Y004152
X027000Y003402
X030000Y003402
X020766Y004152
X023500Y003652
X024500Y003652
X031200Y004902
X032200Y004902
X023500Y002652
X024500Y002652
X020766Y001152
X019766Y001152
X018766Y001152
X017766Y001152
X023500Y001652
X024500Y001652
X009250Y003402
X006250Y003402
X003809Y003552
X001250Y003552
X006250Y001902
X003809Y001752
X001250Y001752
X009250Y001902
T15
X012500Y029823
M30
